<svg xmlns="http://www.w3.org/2000/svg" xmlns:xlink="http://www.w3.org/1999/xlink" xmlns:lucid="lucid" width="936" height="819"><g transform="translate(-292 -20)" lucid:page-tab-id="0_0"><path d="M0 0h1760v1360H0z" fill="#fff"/><path d="M221 232h1258" fill="none"/><path d="M221 232h3.98m7.96 0h7.97m7.97 0h7.96m7.96 0h7.95m7.97 0h7.96m7.96 0h7.96m7.96 0h7.97m7.96 0h7.95m7.96 0h7.97m7.97 0h7.96m7.96 0h7.96m7.96 0h7.97m7.96 0h7.97m7.96 0H432m7.96 0h7.96m7.96 0h7.96m7.96 0h7.97m7.96 0h7.96m7.95 0h7.96m7.98 0h7.96m7.96 0h7.96m7.96 0h7.97m7.95 0h7.96m7.97 0h7.96m7.97 0h7.96m7.96 0h7.96m7.96 0H639m7.97 0h7.96m7.96 0h7.95m7.97 0h7.96m7.96 0h7.96m7.96 0h7.97m7.96 0h7.95m7.96 0h7.97m7.97 0h7.96m7.96 0h7.96m7.96 0h7.97m7.96 0h7.97m7.96 0h7.96m7.96 0h7.96m7.96 0h7.96m7.97 0h7.97m7.96 0h7.96m7.95 0h7.97m7.96 0h7.96m7.96 0h7.96m7.97 0h7.96m7.95 0h7.96m7.97 0h7.97m7.96 0h7.96m7.96 0h7.96m7.97 0h7.96m7.97 0h7.96m7.96 0h7.96m7.96 0h7.96m7.96 0h7.96m7.97 0h7.96m7.96 0h7.95m7.96 0h7.98m7.96 0h7.96m7.96 0h7.96m7.97 0h7.95m7.96 0h7.97m7.96 0h7.97m7.96 0h7.96m7.96 0h7.96m7.97 0h7.97m7.96 0h7.96m7.95 0h7.97m7.96 0h7.96m7.96 0h7.96m7.97 0h7.96m7.95 0h7.96m7.97 0h7.97m7.96 0h7.96m7.96 0h7.96m7.97 0h7.96m7.97 0h7.96m7.96 0h7.96m7.96 0h3.98M221.03 232H220M1478.97 232h1.03" stroke="#000" stroke-width="2" fill="none"/><path d="M221 772h1338" fill="none"/><path d="M221 772h3.98m7.97 0h7.96m7.98 0h7.96m7.96 0h7.97m7.96 0h7.97m7.96 0h7.97m7.96 0h7.95m7.97 0h7.96m7.97 0h7.96m7.98 0h7.96m7.96 0h7.97m7.96 0h7.97m7.96 0h7.97m7.96 0h7.95m7.97 0h7.96m7.97 0h7.96m7.98 0h7.96m7.96 0h7.97m7.96 0h7.97m7.96 0h7.97m7.96 0h7.95m7.97 0h7.96m7.97 0h7.96m7.98 0h7.96m7.96 0h7.97m7.96 0h7.97m7.96 0h7.97m7.96 0h7.95m7.97 0h7.96m7.97 0h7.96m7.98 0h7.96m7.96 0h7.97m7.96 0h7.97m7.96 0h7.97m7.96 0h7.95m7.97 0h7.96m7.97 0h7.96m7.98 0h7.96m7.96 0h7.97m7.96 0h7.97m7.96 0h7.97m7.96 0h7.95m7.97 0h7.96m7.97 0h7.96m7.98 0h7.96m7.96 0h7.97m7.96 0h7.97m7.96 0h7.96m7.97 0h7.95m7.97 0h7.96m7.97 0h7.96m7.97 0h7.97m7.96 0h7.97m7.96 0h7.97m7.96 0h7.96m7.97 0h7.95m7.97 0h7.96m7.97 0h7.96m7.97 0h7.97m7.96 0h7.97m7.96 0h7.97m7.96 0h7.96m7.97 0h7.95m7.97 0h7.96m7.97 0h7.96m7.97 0h7.97m7.96 0h7.97m7.96 0h7.97m7.96 0h7.96m7.97 0h7.95m7.97 0h7.96m7.97 0h7.96m7.97 0h7.97m7.96 0h7.97m7.96 0h7.97m7.96 0h7.96m7.97 0h7.95m7.97 0h7.96m7.97 0h7.96m7.97 0h7.97m7.96 0h7.97m7.96 0h7.97m7.96 0h7.96m7.97 0h7.95m7.97 0h3.98M221.03 772H220M1558.97 772h1.03" stroke="#000" stroke-width="2" fill="none"/><path d="M360 52h120v40H360z" fill="none"/><use xlink:href="#a" transform="matrix(1,0,0,1,360,52.000000000000014) translate(0 24.444444444444443)"/><use xlink:href="#b" transform="matrix(1,0,0,1,360,52.000000000000014) translate(12.345679012345679 24.444444444444443)"/><use xlink:href="#c" transform="matrix(1,0,0,1,360,52.000000000000014) translate(24.691358024691358 24.444444444444443)"/><path d="M221 492h1298" fill="none"/><path d="M221 492h4m8.02 0h8m8.02 0h8.02m8 0h8.02m8 0h8.02m8.02 0h8m8.02 0h8m8.03 0h8m8.02 0h8m8.02 0h8m8.02 0h8m8.03 0h8m8.02 0h8m8 0h8.03m8 0h8.02m8 0h8.03m8 0h8.02m8 0h8.03m8 0h8.02m8 0h8.03m8 0h8.02m8 0h8.02m8.02 0h8m8.02 0h8m8.03 0h8m8 0h8.02m8.02 0h8m8.02 0h8m8.03 0h8m8 0h8.02m8 0h8.03m8 0h8.02m8 0h8.03m8 0h8.02m8 0h8.03m8 0h8.02m8 0h8.03m8 0h8.02m8 0h8.02m8.02 0h8m8.02 0h8m8.03 0h8.02m8 0h8.02m8.02 0h8m8.02 0h8m8.02 0h8.02m8 0h8.02m8 0h8.03m8 0h8.02m8 0h8.02m8 0h8.02m8 0h8.03m8 0h8.02m8 0h8m8.03 0h8m8.02 0h8m8.03 0h8m8.02 0h8m8.03 0h8m8.02 0h8m8.03 0h8m8.02 0h8m8.02 0h8.02m8 0h8.02m8 0h8.03m8 0h8m8.02 0h8.02m8 0h8.02m8 0h8.03m8 0h8m8.02 0h8m8.03 0h8m8.02 0h8m8.03 0h8m8.02 0h8m8.03 0h8m8.02 0h8m8.03 0h8m8.02 0h8m8.02 0h8.02m8 0h8.02m8 0h4.02M221.03 492H220M1518.97 492h1.03" stroke="#000" stroke-width="2" fill="none"/><path d="M749.7 32H840v47.75h-90.3z" fill="none"/><use xlink:href="#d" transform="matrix(1,0,0,1,749.6977559524062,31.999999999999993) translate(21.45679012345679 28.444444444444443)"/><path d="M920 232c0 22.1-17.9 40-40 40s-40-17.9-40-40 17.9-40 40-40 40 17.9 40 40z" stroke="#000" stroke-width="2" fill="#19967d"/><use xlink:href="#e" transform="matrix(1,0,0,1,845,196.99999999999997) translate(29 38.4625)"/><path d="M680 492c0 22.1-17.9 40-40 40s-40-17.9-40-40 17.9-40 40-40 40 17.9 40 40z" stroke="#000" stroke-width="2" fill="#19967d"/><use xlink:href="#f" transform="matrix(1,0,0,1,605,457) translate(29 38.4625)"/><path d="M440 772c0 22.1-17.9 40-40 40s-40-17.9-40-40 17.9-40 40-40 40 17.9 40 40z" stroke="#000" stroke-width="2" fill="#83bbe5"/><use xlink:href="#g" transform="matrix(1,0,0,1,365,737) translate(28.525 38.4625)"/><path d="M900 772c0 22.1-17.9 40-40 40s-40-17.9-40-40 17.9-40 40-40 40 17.9 40 40z" stroke="#000" stroke-width="2" fill="#83bbe5"/><use xlink:href="#h" transform="matrix(1,0,0,1,825,737) translate(29 38.4625)"/><path d="M1180 492c0 22.1-17.9 40-40 40s-40-17.9-40-40 17.9-40 40-40 40 17.9 40 40z" stroke="#000" stroke-width="2" fill="#83bbe5"/><use xlink:href="#i" transform="matrix(1,0,0,1,1105,457) translate(28.525 38.4625)"/><path d="M667.32 460.12L848.1 259.5M670.3 462.8l180.76-200.62" stroke="#000" stroke-width="2" fill="none"/><path d="M668.08 460.77l-.7.77-1.54-1.27.76-.84zM671.05 463.45l-.84.94-1.37-1.47.74-.82zM848.5 258.27l1.06 1.1-.74.82-1.5-1.35.9-1zM852.06 262l.3.24-.57.62-1.5-1.34.64-.7z"/><path d="M417.7 733.4l190.7-213.55M420.7 736.07L611.4 522.5" stroke="#000" stroke-width="2" fill="none"/><path d="M418.47 734.05l-.9 1-1.88-.9 1.27-1.43zM421.45 736.7l-.25.3-1.57-1-.16-.08.5-.54zM608.5 518.27l1.38 1.43-.74.83-1.5-1.33.86-.96zM612.06 522l.65.54-.58.66-1.5-1.34.64-.7z"/><path d="M830.9 741.5L669.15 521.72M834.1 739.13L672.4 519.35" stroke="#000" stroke-width="2" fill="none"/><path d="M832.36 741.8l-1.46 1.4-.83-1.13 1.6-1.18zM835.45 739.26l-1.6 1.18-.56-.74 1.6-1.18zM669.98 521.15l-1.6 1.2-.38-.5 1.47-1.4zM673.2 518.78l-1.6 1.2-.77-1.04 1.3-1.6z"/><path d="M1108.62 464.05l-200.7-200.7M1111.45 461.22l-200.7-200.7" stroke="#000" stroke-width="2" fill="none"/><path d="M1110.02 464.03l-.03.03-1.26 1.52-.84-.84 1.4-1.4zM1112.92 461.28l-1.45 1.38-.74-.75 1.4-1.4zM908.66 262.67l-1.42 1.4-.78-.77 1.45-1.37zM911.5 259.84l-1.43 1.42-.7-.7.64-.62.72-.86z"/><path d="M602.8 511.08l-8.05-.22-8.68.12-8.35.47-8.06.8-7.8 1.1-7.54 1.4-7.34 1.66-7.15 1.96-6.96 2.2-6.8 2.5-6.66 2.74-6.5 3.02-6.4 3.3-6.28 3.56-6.17 3.86-6.06 4.16-5.97 4.46-5.86 4.8-5.76 5.1-5.65 5.48-5.55 5.84-5.43 6.2-5.3 6.6-5.15 7-5 7.43-4.8 7.84-4.6 8.26-4.38 8.67-4.1 9.07-3.82 9.46-3.5 9.8-3.12 10.14-2.74 10.4-2.32 10.62-1.9 10.76-1.43 10.83-.9 10.06" stroke="#000" stroke-width="2" fill="none"/><path d="M603.22 510.1l1.14 2.02-1.63-.05.06-2z"/><path d="M400.13 727.77l-4.1-14.43 9.26.34z" stroke="#000" stroke-width="2"/><path d="M677.22 511.26l5.1.5 6.2.88 6.3 1.15 6.4 1.45 6.48 1.76 6.6 2.1 6.7 2.45 6.8 2.8 6.88 3.2 6.97 3.58 7.04 4 7.08 4.44 7.12 4.87 7.12 5.34 7.1 5.78 7 6.24 6.92 6.67 6.76 7.1 6.56 7.5 6.33 7.9 6.03 8.2 5.73 8.5 5.37 8.72 5 8.93 4.58 9.08 4.17 9.2 3.74 9.25 3.3 9.26 2.87 9.27 2.43 9.2 2 9.15 1.6 9.06 1.2 8.96.43 4.8" stroke="#000" stroke-width="2" fill="none"/><path d="M677.35 510.27l-.2 2-1.45-.15.3-.5.67-1.42z"/><path d="M859.85 727.77l-5.3-14.03 9.26-.44z" stroke="#000" stroke-width="2"/><path d="M620.18 547.86l-1.26 5.7-5.1 19.1-5.04 16.07-5 13.88-5 12.3-5.05 11.04-5.14 10.1-5.25 9.3-5.4 8.7-5.57 8.2-5.8 7.8-6.03 7.46-6.35 7.2-6.72 7-7.15 6.86-7.65 6.75-8.26 6.7-9 6.67-9.85 6.7-10.94 6.78-12.27 6.9-13.94 7.1-16.08 7.35-12.5 5.18" stroke="#000" stroke-width="2" fill="none"/><path d="M623.5 532.96l1.42 14.93-9.04-2.02z" stroke="#000" stroke-width="2"/><path d="M440.25 759.6l-1.07.44-.26-.98-.38-.92.94-.4z"/><path d="M658.38 547.83l1.35 10.65 1.98 11.57 2.23 10.37 2.46 9.56 2.73 9 3.05 8.72 3.43 8.62 3.94 8.78 4.62 9.26 5.65 10.24 7.42 12.16 7.8 11.82 5.48 7.66 5.94 7.6 6.4 7.52 6.85 7.37 7.24 7.16 7.63 6.9 7.95 6.62 8.22 6.26 8.42 5.86 8.54 5.42 8.6 4.95 8.6 4.48 8.55 4 8.42 3.48 8.26 3.03.62.2" stroke="#000" stroke-width="2" fill="none"/><path d="M657 532.63l5.9 13.78-9.23.85z" stroke="#000" stroke-width="2"/><path d="M822.07 756.5l-.24.5-.44 1.37-1-.33.64-1.9z"/><path d="M681.87 492.5l7 4.05 8.62 4.5 9.48 4.5 10.47 4.4 11.6 4.3 12.83 4.2 14.25 3.97 15.82 3.72 17.57 3.36 19.43 2.88 21.4 2.26 23.3 1.48 25.03.54 26.34-.53 26.95-1.68 26.65-2.77 25.36-3.72 23.2-4.4 20.5-4.77 17.53-4.9 14.7-4.74 12.17-4.5 9.98-4.18.4-.2" stroke="#000" stroke-width="2" fill="none"/><path d="M682.4 491.65l-1 1.73-.47-.26.07-1.1-.04-1.2z"/><path d="M1096.1 493.45l-10.67 10.53-4.15-8.28z" stroke="#000" stroke-width="2"/><path d="M1139.73 450.03l-2.42-8.67-3.15-9.72-3.66-9.84-4.2-9.97-4.76-10.1-5.36-10.26-6.02-10.4-6.7-10.56-7.44-10.7-8.22-10.83-9.04-10.9-9.86-10.96-10.68-10.9-11.48-10.77-12.17-10.5-12.72-10.1-13.08-9.5-13.17-8.74-12.95-7.86-12.43-6.83-11.63-5.77-10.65-4.74-9.35-3.72" stroke="#000" stroke-width="2" fill="none"/><path d="M1141.06 451.06L1140 451l-1.03.04-.2-.76 1.92-.54z"/><path d="M924.08 233l15-.04-2.85 8.83z" stroke="#000" stroke-width="2"/><path d="M838 232.05l-2.96.15-4.24.4-4.56.62-4.9.88-5.25 1.17-5.68 1.52-6.1 1.9-6.56 2.35-7.03 2.86-7.5 3.44-7.98 4.06-8.4 4.72-8.77 5.43-9.07 6.15-9.22 6.85-9.3 7.5-9.17 8.1-8.94 8.55-8.6 8.94-8.1 9.18-7.56 9.3-6.95 9.35-6.33 9.3-5.7 9.14-5.06 9-4.48 8.75-3.9 8.52-3.4 8.26-2.9 8-2.43 7.77-2.02 7.52-1.64 7.28-1.3 7.06-.88 6.48" stroke="#000" stroke-width="2" fill="none"/><path d="M839 232l.03 1-1 .05-.1-2 1.13-.05z"/><path d="M640.2 447.77l-3.77-14.52 9.25.56z" stroke="#000" stroke-width="2"/><path d="M806.83 80.65l47.27 97.78" stroke="#000" stroke-width="2" fill="none"/><path d="M807.74 80.24l-1.8.87-.66-1.35h2.22z"/><path d="M860.75 192.18l-10.4-10.83 8.36-4.04z" stroke="#000" stroke-width="2"/><path d="M937.6 97l-38.07 97.84" stroke="#000" stroke-width="2" fill="none"/><path d="M943.12 82.77l-.85 14.97-8.64-3.36z" stroke="#000" stroke-width="2"/><path d="M900.47 195.18l-.42 1.08-.42-.27-1.37-.65.34-.9z"/><path d="M900 32h90.3v47.75H900z" fill="none"/><use xlink:href="#j" transform="matrix(1,0,0,1,899.9999999999998,31.999999999999993) translate(14.635802469135804 28.444444444444443)"/><path d="M360 132c0 11.05-8.95 20-20 20s-20-8.95-20-20 8.95-20 20-20 20 8.95 20 20z" stroke="#000" stroke-width="2" fill="#83bbe5"/><path d="M360 72c0 11.05-8.95 20-20 20s-20-8.95-20-20 8.95-20 20-20 20 8.95 20 20z" stroke="#000" stroke-width="2" fill="#19967d"/><path d="M360 112h120v40H360z" fill="none"/><g><use xlink:href="#a" transform="matrix(1,0,0,1,360,112) translate(0 24.444444444444443)"/><use xlink:href="#b" transform="matrix(1,0,0,1,360,112) translate(12.345679012345679 24.444444444444443)"/><use xlink:href="#k" transform="matrix(1,0,0,1,360,112) translate(24.691358024691358 24.444444444444443)"/></g><defs><path d="M33-154v-36h34v36H33zM33 0v-36h34V0H33" id="l"/><use transform="matrix(0.06172839506172839,0,0,0.06172839506172839,0,0)" xlink:href="#l" id="b"/><path d="M206 0h-36l-40-164L89 0H53L-1-190h32L70-26l43-164h34l41 164 42-164h31" id="m"/><path d="M100-194c62-1 85 37 85 99 1 63-27 99-86 99S16-35 15-95c0-66 28-99 85-99zM99-20c44 1 53-31 53-75 0-43-8-75-51-75s-53 32-53 75 10 74 51 75" id="n"/><path d="M114-163C36-179 61-72 57 0H25l-1-190h30c1 12-1 29 2 39 6-27 23-49 58-41v29" id="o"/><path d="M143 0L79-87 56-68V0H24v-261h32v163l83-92h37l-77 82L181 0h-38" id="p"/><path d="M101-234c-31-9-42 10-38 44h38v23H63V0H32v-167H5v-23h27c-7-52 17-82 69-68v24" id="q"/><path d="M24 0v-261h32V0H24" id="r"/><g id="c"><use transform="matrix(0.06172839506172839,0,0,0.06172839506172839,0,0)" xlink:href="#m"/><use transform="matrix(0.06172839506172839,0,0,0.06172839506172839,15.987654320987653,0)" xlink:href="#n"/><use transform="matrix(0.06172839506172839,0,0,0.06172839506172839,28.333333333333332,0)" xlink:href="#o"/><use transform="matrix(0.06172839506172839,0,0,0.06172839506172839,35.67901234567901,0)" xlink:href="#p"/><use transform="matrix(0.06172839506172839,0,0,0.06172839506172839,46.79012345679013,0)" xlink:href="#q"/><use transform="matrix(0.06172839506172839,0,0,0.06172839506172839,52.96296296296297,0)" xlink:href="#r"/><use transform="matrix(0.06172839506172839,0,0,0.06172839506172839,57.83950617283951,0)" xlink:href="#n"/><use transform="matrix(0.06172839506172839,0,0,0.06172839506172839,70.18518518518519,0)" xlink:href="#m"/></g><path d="M24-231v-30h32v30H24zM24 0v-190h32V0H24" id="s"/><path d="M117-194c89-4 53 116 60 194h-32v-121c0-31-8-49-39-48C34-167 62-67 57 0H25l-1-190h30c1 10-1 24 2 32 11-22 29-35 61-36" id="t"/><path d="M115-194c55 1 70 41 70 98S169 2 115 4C84 4 66-9 55-30l1 105H24l-1-265h31l2 30c10-21 28-34 59-34zm-8 174c40 0 45-34 45-75s-6-73-45-74c-42 0-51 32-51 76 0 43 10 73 51 73" id="u"/><path d="M84 4C-5 8 30-112 23-190h32v120c0 31 7 50 39 49 72-2 45-101 50-169h31l1 190h-30c-1-10 1-25-2-33-11 22-28 36-60 37" id="v"/><path d="M59-47c-2 24 18 29 38 22v24C64 9 27 4 27-40v-127H5v-23h24l9-43h21v43h35v23H59v120" id="w"/><g id="d"><use transform="matrix(0.06172839506172839,0,0,0.06172839506172839,0,0)" xlink:href="#s"/><use transform="matrix(0.06172839506172839,0,0,0.06172839506172839,4.876543209876543,0)" xlink:href="#t"/><use transform="matrix(0.06172839506172839,0,0,0.06172839506172839,17.22222222222222,0)" xlink:href="#u"/><use transform="matrix(0.06172839506172839,0,0,0.06172839506172839,29.5679012345679,0)" xlink:href="#v"/><use transform="matrix(0.06172839506172839,0,0,0.06172839506172839,41.913580246913575,0)" xlink:href="#w"/></g><path d="M205 0l-28-72H64L36 0H1l101-248h38L239 0h-34zm-38-99l-47-123c-12 45-31 82-46 123h93" id="x"/><use transform="matrix(0.05,0,0,0.05,0,0)" xlink:href="#x" id="e"/><path d="M160-131c35 5 61 23 61 61C221 17 115-2 30 0v-248c76 3 177-17 177 60 0 33-19 50-47 57zm-97-11c50-1 110 9 110-42 0-47-63-36-110-37v79zm0 115c55-2 124 14 124-45 0-56-70-42-124-44v89" id="y"/><use transform="matrix(0.05,0,0,0.05,0,0)" xlink:href="#y" id="f"/><path d="M30-248c118-7 216 8 213 122C240-48 200 0 122 0H30v-248zM63-27c89 8 146-16 146-99s-60-101-146-95v194" id="z"/><use transform="matrix(0.05,0,0,0.05,0,0)" xlink:href="#z" id="g"/><path d="M30 0v-248h187v28H63v79h144v27H63v87h162V0H30" id="A"/><use transform="matrix(0.05,0,0,0.05,0,0)" xlink:href="#A" id="h"/><path d="M212-179c-10-28-35-45-73-45-59 0-87 40-87 99 0 60 29 101 89 101 43 0 62-24 78-52l27 14C228-24 195 4 139 4 59 4 22-46 18-125c-6-104 99-153 187-111 19 9 31 26 39 46" id="B"/><use transform="matrix(0.05,0,0,0.05,0,0)" xlink:href="#B" id="i"/><g id="j"><use transform="matrix(0.06172839506172839,0,0,0.06172839506172839,0,0)" xlink:href="#n"/><use transform="matrix(0.06172839506172839,0,0,0.06172839506172839,12.345679012345679,0)" xlink:href="#v"/><use transform="matrix(0.06172839506172839,0,0,0.06172839506172839,24.691358024691358,0)" xlink:href="#w"/><use transform="matrix(0.06172839506172839,0,0,0.06172839506172839,30.864197530864196,0)" xlink:href="#u"/><use transform="matrix(0.06172839506172839,0,0,0.06172839506172839,43.20987654320987,0)" xlink:href="#v"/><use transform="matrix(0.06172839506172839,0,0,0.06172839506172839,55.55555555555555,0)" xlink:href="#w"/></g><path d="M141-36C126-15 110 5 73 4 37 3 15-17 15-53c-1-64 63-63 125-63 3-35-9-54-41-54-24 1-41 7-42 31l-33-3c5-37 33-52 76-52 45 0 72 20 72 64v82c-1 20 7 32 28 27v20c-31 9-61-2-59-35zM48-53c0 20 12 33 32 33 41-3 63-29 60-74-43 2-92-5-92 41" id="C"/><path d="M135-143c-3-34-86-38-87 0 15 53 115 12 119 90S17 21 10-45l28-5c4 36 97 45 98 0-10-56-113-15-118-90-4-57 82-63 122-42 12 7 21 19 24 35" id="D"/><g id="k"><use transform="matrix(0.06172839506172839,0,0,0.06172839506172839,0,0)" xlink:href="#w"/><use transform="matrix(0.06172839506172839,0,0,0.06172839506172839,6.172839506172839,0)" xlink:href="#C"/><use transform="matrix(0.06172839506172839,0,0,0.06172839506172839,18.51851851851852,0)" xlink:href="#D"/><use transform="matrix(0.06172839506172839,0,0,0.06172839506172839,29.62962962962963,0)" xlink:href="#p"/></g></defs></g></svg>