<svg xmlns="http://www.w3.org/2000/svg" xmlns:xlink="http://www.w3.org/1999/xlink" xmlns:lucid="lucid" width="3004" height="2014"><g transform="translate(-164 -289)" lucid:page-tab-id="0_0"><path d="M0 0h3456v3952H0z" fill="#fff"/><path d="M1054.6 829.75h200v480h-200z" stroke="#000" stroke-width="2" fill="#fff"/><use xlink:href="#a" transform="matrix(1,0,0,1,1059.6040274589172,834.7500000000002) translate(58.03703703703704 241.64583333333334)"/><path d="M1664.6 815.75h200v480h-200z" stroke="#000" stroke-width="2" fill="#fff"/><use xlink:href="#b" transform="matrix(1,0,0,1,1669.6040274589175,820.7500000000002) translate(55.03703703703704 241.64583333333334)"/><path d="M1864.6 815.75h200v480h-200z" stroke="#000" stroke-width="2" fill="#fff"/><use xlink:href="#c" transform="matrix(1,0,0,1,1869.604027458918,820.7500000000002) translate(38.03703703703704 241.64583333333334)"/><path d="M2610.6 1280.75h160v120h-160z" stroke="#000" stroke-width="2" fill="#fff"/><use xlink:href="#d" transform="matrix(1,0,0,1,2615.6040274589177,1285.7500000000005) translate(50.55555555555556 59.145833333333336)"/><path d="M2770.6 1280.75h160v120h-160z" stroke="#000" stroke-width="2" fill="#fff"/><use xlink:href="#c" transform="matrix(1,0,0,1,2775.6040274589177,1285.7500000000005) translate(18.037037037037038 59.145833333333336)"/><path d="M428 1018.77c17.67 0 32 17.9 32 40s-14.33 40-32 40h-96c-17.67 0-32-17.9-32-40s14.33-40 32-40z" stroke="#000" stroke-width="2" fill="#fff"/><use xlink:href="#e" transform="matrix(1,0,0,1,305,1023.7736011637762) translate(11.407407407407405 41.020833333333336)"/><path d="M448.8 1025.95h532.7" stroke="#000" stroke-width="2" fill="none"/><path d="M448.8 1026.95h-.07l-.94-1-1.23-1h2.24z"/><path d="M996.76 1025.95l-14.26 4.63v-9.27z" stroke="#000" stroke-width="2"/><path d="M618.13 1040.75h240v40h-240z" stroke="#000" stroke-opacity="0" stroke-width="2" fill="#fff" fill-opacity="0"/><use xlink:href="#f" transform="matrix(1,0,0,1,623.1269192035062,1045.75) translate(56.48148148148148 19.65277777777778)"/><use xlink:href="#g" transform="matrix(1,0,0,1,623.1269192035062,1045.75) translate(137.71604938271605 19.65277777777778)"/><path d="M602.8 987.4h270.64v40H602.8z" stroke="#000" stroke-opacity="0" stroke-width="2" fill="#fff" fill-opacity="0"/><use xlink:href="#h" transform="matrix(1,0,0,1,607.8144192035062,992.3923295640025) translate(11.580246913580268 19.65277777777778)"/><use xlink:href="#i" transform="matrix(1,0,0,1,607.8144192035062,992.3923295640025) translate(116.20987654320989 19.65277777777778)"/><use xlink:href="#j" transform="matrix(1,0,0,1,607.8144192035062,992.3923295640025) translate(187.75308641975306 19.65277777777778)"/><path d="M594.6 495h160v120h-160z" stroke="#000" stroke-width="2" fill="#fff"/><use xlink:href="#k" transform="matrix(1,0,0,1,599.604027458917,500.0000000000002) translate(30.666666666666664 59.145833333333336)"/><path d="M771.16 626.02l247.9 159.7" stroke="#000" stroke-width="2" fill="none"/><path d="M758.32 617.75l14.5 3.83-5 7.8zM1031.88 794l-14.5-3.83 5.02-7.8z" stroke="#000" stroke-width="2"/><path d="M1294.78 1060.75h280.32" stroke="#000" stroke-width="2" fill="none"/><path d="M1293.78 1060.75l-2.42 1h-.58v-2h.58z"/><path d="M1590.37 1060.75l-14.27 4.64v-9.3z" stroke="#000" stroke-width="2"/><path d="M1314.6 1020.75h240v40h-240z" stroke="#000" stroke-opacity="0" stroke-width="2" fill="#fff" fill-opacity="0"/><use xlink:href="#l" transform="matrix(1,0,0,1,1319.6040274589172,1025.75) translate(14.444444444444443 19.65277777777778)"/><use xlink:href="#m" transform="matrix(1,0,0,1,1319.6040274589172,1025.75) translate(55.18518518518518 19.65277777777778)"/><use xlink:href="#n" transform="matrix(1,0,0,1,1319.6040274589172,1025.75) translate(97.1604938271605 19.65277777777778)"/><use xlink:href="#o" transform="matrix(1,0,0,1,1319.6040274589172,1025.75) translate(132.9012345679012 19.65277777777778)"/><path d="M1294.6 1055.75h290v60h-290z" stroke="#000" stroke-opacity="0" stroke-width="2" fill="#fff" fill-opacity="0"/><use xlink:href="#h" transform="matrix(1,0,0,1,1299.6040274589172,1060.7500000000005) translate(15.586419753086432 30.52777777777778)"/><use xlink:href="#i" transform="matrix(1,0,0,1,1299.6040274589172,1060.7500000000005) translate(120.21604938271605 30.52777777777778)"/><use xlink:href="#p" transform="matrix(1,0,0,1,1299.6040274589172,1060.7500000000005) translate(191.75925925925924 30.52777777777778)"/><path d="M2156.1 969.64h340M2156.13 969.64h-1.03" stroke="#000" stroke-width="2" fill="none"/><path d="M2511.37 969.64l-14.27 4.64V965z" stroke="#000" stroke-width="2"/><path d="M2213.33 935h240v30.25h-240z" stroke="#000" stroke-opacity="0" stroke-width="2" fill="#fff" fill-opacity="0"/><use xlink:href="#l" transform="matrix(1,0,0,1,2218.33047742936,940.0000000000002) translate(14.444444444444443 17.77777777777778)"/><use xlink:href="#m" transform="matrix(1,0,0,1,2218.33047742936,940.0000000000002) translate(55.18518518518518 17.77777777777778)"/><use xlink:href="#n" transform="matrix(1,0,0,1,2218.33047742936,940.0000000000002) translate(97.1604938271605 17.77777777777778)"/><use xlink:href="#o" transform="matrix(1,0,0,1,2218.33047742936,940.0000000000002) translate(132.9012345679012 17.77777777777778)"/><path d="M2214.62 972.03h221.44v32.9h-221.44z" stroke="#000" stroke-opacity="0" stroke-width="2" fill="#fff" fill-opacity="0"/><use xlink:href="#q" transform="matrix(1,0,0,1,2219.619829359728,977.0310462212707) translate(13.53086419753086 17.77777777777778)"/><use xlink:href="#r" transform="matrix(1,0,0,1,2219.619829359728,977.0310462212707) translate(71.4320987654321 17.77777777777778)"/><use xlink:href="#n" transform="matrix(1,0,0,1,2219.619829359728,977.0310462212707) translate(103.46913580246914 17.77777777777778)"/><use xlink:href="#s" transform="matrix(1,0,0,1,2219.619829359728,977.0310462212707) translate(139.20987654320987 17.77777777777778)"/><path d="M2155.58 812.27l340.94-73.38M2155.6 812.27l-1 .2" stroke="#000" stroke-width="2" fill="none"/><path d="M2511.44 735.68l-12.97 7.53-1.95-9.05z" stroke="#000" stroke-width="2"/><path d="M2210.28 759.78l210-44.78 9.1 42.7-210 44.78z" stroke="#000" stroke-opacity="0" stroke-width="2" fill="#fff" fill-opacity="0"/><use xlink:href="#l" transform="matrix(0.9780083038899158,-0.20856595484970747,0.20856595484970747,0.9780083038899158,2216.2106823389313,763.6315795928031) translate(1.9444444444444429 22.02777777777778)"/><use xlink:href="#m" transform="matrix(0.9780083038899158,-0.20856595484970747,0.20856595484970747,0.9780083038899158,2216.2106823389313,763.6315795928031) translate(42.68518518518518 22.02777777777778)"/><use xlink:href="#n" transform="matrix(0.9780083038899158,-0.20856595484970747,0.20856595484970747,0.9780083038899158,2216.2106823389313,763.6315795928031) translate(84.6604938271605 22.02777777777778)"/><use xlink:href="#o" transform="matrix(0.9780083038899158,-0.20856595484970747,0.20856595484970747,0.9780083038899158,2216.2106823389313,763.6315795928031) translate(120.40123456790123 22.02777777777778)"/><path d="M2219.88 799.7l203.74-42.4 7.18 34.5-203.74 42.4z" stroke="#000" stroke-opacity="0" stroke-width="2" fill="#fff" fill-opacity="0"/><use xlink:href="#q" transform="matrix(0.9790448067986541,-0.20364495152246231,0.20364495152246231,0.9790448067986541,2225.7960504452562,803.5620148976468) translate(7.03086419753086 19.40277777777778)"/><use xlink:href="#r" transform="matrix(0.9790448067986541,-0.20364495152246231,0.20364495152246231,0.9790448067986541,2225.7960504452562,803.5620148976468) translate(64.9320987654321 19.40277777777778)"/><use xlink:href="#n" transform="matrix(0.9790448067986541,-0.20364495152246231,0.20364495152246231,0.9790448067986541,2225.7960504452562,803.5620148976468) translate(96.96913580246914 19.40277777777778)"/><use xlink:href="#s" transform="matrix(0.9790448067986541,-0.20364495152246231,0.20364495152246231,0.9790448067986541,2225.7960504452562,803.5620148976468) translate(132.70987654320987 19.40277777777778)"/><path d="M2155.58 1238.23l341.02 80.52M2155.6 1238.24l-1-.24" stroke="#000" stroke-width="2" fill="none"/><path d="M2511.45 1322.26l-14.94 1.23 2.14-9.03z" stroke="#000" stroke-width="2"/><path d="M2238.68 1220.38l231.56 53.5-8.25 35.72-231.57-53.5z" stroke="#000" stroke-opacity="0" stroke-width="2" fill="#fff" fill-opacity="0"/><use xlink:href="#l" transform="matrix(0.9743325959367412,0.2251132881354878,-0.2251132881354878,0.9743325959367412,2242.4307686950365,1226.3768033249507) translate(13.444444444444443 19.46527777777778)"/><use xlink:href="#m" transform="matrix(0.9743325959367412,0.2251132881354878,-0.2251132881354878,0.9743325959367412,2242.4307686950365,1226.3768033249507) translate(54.18518518518518 19.46527777777778)"/><use xlink:href="#n" transform="matrix(0.9743325959367412,0.2251132881354878,-0.2251132881354878,0.9743325959367412,2242.4307686950365,1226.3768033249507) translate(96.1604938271605 19.46527777777778)"/><use xlink:href="#o" transform="matrix(0.9743325959367412,0.2251132881354878,-0.2251132881354878,0.9743325959367412,2242.4307686950365,1226.3768033249507) translate(131.9012345679012 19.46527777777778)"/><path d="M2236.85 1262.4l199.2 46.07-6.24 26.98-199.2-46.08z" stroke="#000" stroke-opacity="0" stroke-width="2" fill="#fff" fill-opacity="0"/><use xlink:href="#q" transform="matrix(0.974276061236126,0.2253578410045242,-0.2253578410045242,0.974276061236126,2240.5925495562224,1268.3901790502955) translate(5.03086419753086 17.77777777777778)"/><use xlink:href="#r" transform="matrix(0.974276061236126,0.2253578410045242,-0.2253578410045242,0.974276061236126,2240.5925495562224,1268.3901790502955) translate(62.932098765432094 17.77777777777778)"/><use xlink:href="#n" transform="matrix(0.974276061236126,0.2253578410045242,-0.2253578410045242,0.974276061236126,2240.5925495562224,1268.3901790502955) translate(94.96913580246914 17.77777777777778)"/><use xlink:href="#s" transform="matrix(0.974276061236126,0.2253578410045242,-0.2253578410045242,0.974276061236126,2240.5925495562224,1268.3901790502955) translate(130.70987654320987 17.77777777777778)"/><path d="M2070.94 1970.75c0 6.63-26.87 12-60 12-33.14 0-60-5.37-60-12v-96c0-6.63 26.86-12 60-12 33.13 0 60 5.37 60 12z" stroke="#000" stroke-width="2" fill="#fff"/><path d="M2070.94 1874.75c0 6.63-26.87 12-60 12-33.14 0-60-5.37-60-12" stroke="#000" stroke-width="2" fill="none"/><path d="M2110.94 2010.75c0 6.63-26.87 12-60 12-33.14 0-60-5.37-60-12v-96c0-6.63 26.86-12 60-12 33.13 0 60 5.37 60 12z" stroke="#000" stroke-width="2" fill="#fff"/><path d="M2110.94 1914.75c0 6.63-26.87 12-60 12-33.14 0-60-5.37-60-12" stroke="#000" stroke-width="2" fill="none"/><path d="M2150.94 2050.75c0 6.63-26.87 12-60 12-33.14 0-60-5.37-60-12v-96c0-6.63 26.86-12 60-12 33.13 0 60 5.37 60 12z" stroke="#000" stroke-width="2" fill="#fff"/><path d="M2150.94 1954.75c0 6.63-26.87 12-60 12-33.14 0-60-5.37-60-12" stroke="#000" stroke-width="2" fill="none"/><use xlink:href="#t" transform="matrix(1,0,0,1,2035.936565532048,1971.7500000000005) translate(38.7037037037037 48.208333333333336)"/><path d="M1943.44 1822.75c-17.95 0-32.5 14.55-32.5 32.5v195c0 17.95 14.55 32.5 32.5 32.5m215 0c17.95 0 32.5-14.55 32.5-32.5v-195c0-17.95-14.55-32.5-32.5-32.5" stroke="#000" stroke-width="2" fill="none"/><path d="M1940.94 2056.93h220v73.92h-220z" stroke="#000" stroke-opacity="0" stroke-width="2" fill="#fff" fill-opacity="0"/><use xlink:href="#u" transform="matrix(1,0,0,1,1945.936565532047,2061.93066120042) translate(13.055555555555543 37.333333333333336)"/><use xlink:href="#v" transform="matrix(1,0,0,1,1945.936565532047,2061.93066120042) translate(141.72222222222223 37.333333333333336)"/><path d="M1662.1 780.75c-18.64 0-33.75 15.1-33.75 33.75V1027c0 18.64-15.1 33.75-33.75 33.75 18.64 0 33.75 15.1 33.75 33.75V1307c0 18.64 15.1 33.75 33.75 33.75m405 0c18.64 0 33.75-15.1 33.75-33.75v-212.5c0-18.64 15.1-33.75 33.75-33.75-18.64 0-33.75-15.1-33.75-33.75V814.5c0-18.64-15.1-33.75-33.75-33.75M2597.6 1240.75c-6.9 0-12.5 5.6-12.5 12.5v75c0 6.9-5.6 12.5-12.5 12.5 6.9 0 12.5 5.6 12.5 12.5v75c0 6.9 5.6 12.5 12.5 12.5m350 0c6.9 0 12.5-5.6 12.5-12.5v-75c0-6.9 5.6-12.5 12.5-12.5-6.9 0-12.5-5.6-12.5-12.5v-75c0-6.9-5.6-12.5-12.5-12.5" stroke="#000" stroke-width="2" fill="none"/><path d="M2606.6 907.4h160v120h-160z" stroke="#000" stroke-width="2" fill="#fff"/><use xlink:href="#d" transform="matrix(1,0,0,1,2611.6040274589177,912.3923295640024) translate(50.55555555555556 59.145833333333336)"/><path d="M2766.6 907.4h160v120h-160z" stroke="#000" stroke-width="2" fill="#fff"/><use xlink:href="#c" transform="matrix(1,0,0,1,2771.6040274589177,912.3923295640024) translate(18.037037037037038 59.145833333333336)"/><path d="M2593.6 867.4c-6.9 0-12.5 5.6-12.5 12.5v75c0 6.9-5.6 12.5-12.5 12.5 6.9 0 12.5 5.6 12.5 12.5v75c0 6.9 5.6 12.5 12.5 12.5m350 0c6.9 0 12.5-5.6 12.5-12.5v-75c0-6.9 5.6-12.5 12.5-12.5-6.9 0-12.5-5.6-12.5-12.5v-75c0-6.9-5.6-12.5-12.5-12.5" stroke="#000" stroke-width="2" fill="none"/><path d="M2606.6 632.83h160v120h-160z" stroke="#000" stroke-width="2" fill="#fff"/><use xlink:href="#d" transform="matrix(1,0,0,1,2611.6040274589177,637.8274792189021) translate(50.55555555555556 59.145833333333336)"/><path d="M2766.6 632.83h160v120h-160z" stroke="#000" stroke-width="2" fill="#fff"/><use xlink:href="#c" transform="matrix(1,0,0,1,2771.6040274589177,637.8274792189021) translate(18.037037037037038 59.145833333333336)"/><path d="M2593.6 592.83c-6.9 0-12.5 5.6-12.5 12.5v75c0 6.9-5.6 12.5-12.5 12.5 6.9 0 12.5 5.6 12.5 12.5v75c0 6.9 5.6 12.5 12.5 12.5m350 0c6.9 0 12.5-5.6 12.5-12.5v-75c0-6.9 5.6-12.5 12.5-12.5-6.9 0-12.5-5.6-12.5-12.5v-75c0-6.9-5.6-12.5-12.5-12.5M2034.28 1801.8l-153.7-449.3M2034.27 1801.78l.33.97" stroke="#000" stroke-width="2" fill="none"/><path d="M1875.65 1338.06l9 12-8.77 3z" stroke="#000" stroke-width="2"/><path d="M2474.77 1970.75c0 6.63-26.86 12-60 12s-60-5.37-60-12v-96c0-6.63 26.86-12 60-12s60 5.37 60 12z" stroke="#000" stroke-width="2" fill="#fff"/><path d="M2474.77 1874.75c0 6.63-26.86 12-60 12s-60-5.37-60-12" stroke="#000" stroke-width="2" fill="none"/><path d="M2514.77 2010.75c0 6.63-26.86 12-60 12s-60-5.37-60-12v-96c0-6.63 26.86-12 60-12s60 5.37 60 12z" stroke="#000" stroke-width="2" fill="#fff"/><path d="M2514.77 1914.75c0 6.63-26.86 12-60 12s-60-5.37-60-12" stroke="#000" stroke-width="2" fill="none"/><path d="M2554.77 2050.75c0 6.63-26.86 12-60 12s-60-5.37-60-12v-96c0-6.63 26.86-12 60-12s60 5.37 60 12z" stroke="#000" stroke-width="2" fill="#fff"/><path d="M2554.77 1954.75c0 6.63-26.86 12-60 12s-60-5.37-60-12" stroke="#000" stroke-width="2" fill="none"/><use xlink:href="#t" transform="matrix(1,0,0,1,2439.7702964954824,1971.7500000000005) translate(38.7037037037037 48.208333333333336)"/><path d="M2347.27 1822.75c-17.95 0-32.5 14.55-32.5 32.5v195c0 17.95 14.55 32.5 32.5 32.5m215 0c17.95 0 32.5-14.55 32.5-32.5v-195c0-17.95-14.55-32.5-32.5-32.5" stroke="#000" stroke-width="2" fill="none"/><path d="M2332.6 2056.85h240v74h-240z" stroke="#000" stroke-opacity="0" stroke-width="2" fill="#fff" fill-opacity="0"/><use xlink:href="#w" transform="matrix(1,0,0,1,2337.6040274589177,2061.8473278670863) translate(55.111111111111114 37.333333333333336)"/><use xlink:href="#v" transform="matrix(1,0,0,1,2337.6040274589177,2061.8473278670863) translate(118.66666666666667 37.333333333333336)"/><path d="M2439.28 1819.3l-491.33-471.5M2439.26 1819.3l.74.7" stroke="#000" stroke-width="2" fill="none"/><path d="M1936.94 1337.24l13.5 6.53-6.42 6.7z" stroke="#000" stroke-width="2"/><path d="M2878.6 1981.75c0 6.63-26.86 12-60 12-33.13 0-60-5.37-60-12v-96c0-6.63 26.87-12 60-12 33.14 0 60 5.37 60 12z" stroke="#000" stroke-width="2" fill="#fff"/><path d="M2878.6 1885.75c0 6.63-26.86 12-60 12-33.13 0-60-5.37-60-12" stroke="#000" stroke-width="2" fill="none"/><path d="M2918.6 2021.75c0 6.63-26.86 12-60 12-33.13 0-60-5.37-60-12v-96c0-6.63 26.87-12 60-12 33.14 0 60 5.37 60 12z" stroke="#000" stroke-width="2" fill="#fff"/><path d="M2918.6 1925.75c0 6.63-26.86 12-60 12-33.13 0-60-5.37-60-12" stroke="#000" stroke-width="2" fill="none"/><path d="M2958.6 2061.75c0 6.63-26.86 12-60 12-33.13 0-60-5.37-60-12v-96c0-6.63 26.87-12 60-12 33.14 0 60 5.37 60 12z" stroke="#000" stroke-width="2" fill="#fff"/><path d="M2958.6 1965.75c0 6.63-26.86 12-60 12-33.13 0-60-5.37-60-12" stroke="#000" stroke-width="2" fill="none"/><use xlink:href="#t" transform="matrix(1,0,0,1,2843.6040274589177,1982.7500000000002) translate(38.7037037037037 48.208333333333336)"/><path d="M2751.1 1833.75c-17.95 0-32.5 14.55-32.5 32.5v195c0 17.95 14.55 32.5 32.5 32.5m215 0c17.95 0 32.5-14.55 32.5-32.5v-195c0-17.95-14.55-32.5-32.5-32.5" stroke="#000" stroke-width="2" fill="none"/><path d="M2748.6 2073.75h220v74h-220z" stroke="#000" stroke-opacity="0" stroke-width="2" fill="#fff" fill-opacity="0"/><use xlink:href="#x" transform="matrix(1,0,0,1,2753.6040274589177,2078.75) translate(63.55555555555556 25.333333333333336)"/><use xlink:href="#y" transform="matrix(1,0,0,1,2753.6040274589177,2078.75) translate(38.66666666666666 57.333333333333336)"/><path d="M2813.74 1802.25l-783.16-457.9M2813.72 1802.23l.88.52" stroke="#000" stroke-width="2" fill="none"/><path d="M2017.4 1336.63l14.65 3.2-4.68 8z" stroke="#000" stroke-width="2"/><path d="M2035.46 1802.23l583.37-357.56M2035.48 1802.2l-.88.55" stroke="#000" stroke-width="2" fill="none"/><path d="M2631.84 1436.7l-9.74 11.4-4.84-7.9z" stroke="#000" stroke-width="2"/><path d="M2440.58 1819.2l263.28-369.14M2440.6 1819.16l-.6.84" stroke="#000" stroke-width="2" fill="none"/><path d="M2712.72 1437.63l-4.5 14.3-7.55-5.37z" stroke="#000" stroke-width="2"/><path d="M2814.5 1801.76l-37.9-348.37M2814.5 1801.73l.1 1.02" stroke="#000" stroke-width="2" fill="none"/><path d="M2774.95 1438.22l6.15 13.68-9.2 1z" stroke="#000" stroke-width="2"/><path d="M1045.85 786.75c-10 0-18.12 8.1-18.12 18.13v237.75c0 10-8.12 18.12-18.13 18.12 10 0 18.13 8.1 18.13 18.13v237.74c0 10.02 8.1 18.13 18.12 18.13m217.5 0c10 0 18.13-8.1 18.13-18.13v-237.74c0-10.02 8.1-18.13 18.12-18.13-10 0-18.12-8.1-18.12-18.13V804.9c0-10.02-8.12-18.13-18.13-18.13" stroke="#000" stroke-width="2" fill="none"/><path d="M1034.6 775.75h240v40h-240z" stroke="#000" stroke-opacity="0" stroke-width="2" fill="#fff" fill-opacity="0"/><use xlink:href="#z" transform="matrix(1,0,0,1,1039.6040274589172,780.7500000000002) translate(57.65432098765432 19.65277777777778)"/><path d="M1744.6 759.34h240v40h-240z" stroke="#000" stroke-opacity="0" stroke-width="2" fill="#fff" fill-opacity="0"/><use xlink:href="#A" transform="matrix(1,0,0,1,1749.6040274589166,764.338371990525) translate(100.21604938271605 19.65277777777778)"/><path d="M2642.6 572.83h240v40h-240z" stroke="#000" stroke-opacity="0" stroke-width="2" fill="#fff" fill-opacity="0"/><use xlink:href="#A" transform="matrix(1,0,0,1,2647.6040274589177,577.827479218902) translate(100.21604938271605 19.65277777777778)"/><path d="M2648.6 852.4h240v40h-240z" stroke="#000" stroke-opacity="0" stroke-width="2" fill="#fff" fill-opacity="0"/><use xlink:href="#A" transform="matrix(1,0,0,1,2653.6040274589177,857.3923295640022) translate(100.21604938271605 19.65277777777778)"/><path d="M2658.6 1220.75h240v40h-240z" stroke="#000" stroke-opacity="0" stroke-width="2" fill="#fff" fill-opacity="0"/><use xlink:href="#A" transform="matrix(1,0,0,1,2663.6040274589177,1225.7500000000002) translate(100.21604938271605 19.65277777777778)"/><path d="M851.4 631.83l112.9 77.56-16.77 24.42-112.93-77.55z" stroke="#000" stroke-opacity="0" stroke-width="2" fill="#fff" fill-opacity="0"/><use xlink:href="#B" transform="matrix(0.8243161967995403,0.5661296739210387,-0.5661296739210387,0.8243161967995403,852.6773639304731,638.7846751687359) translate(5.5679012345679055 17.77777777777778)"/><use xlink:href="#g" transform="matrix(0.8243161967995403,0.5661296739210387,-0.5661296739210387,0.8243161967995403,852.6773639304731,638.7846751687359) translate(85.62962962962962 17.77777777777778)"/><path d="M1484.6 2034.9c0 11.03-44.77 20-100 20-55.22 0-100-8.97-100-20v-160c0-11.06 44.78-20 100-20 55.23 0 100 8.94 100 20z" stroke="#000" stroke-width="2" fill="#fff"/><path d="M1484.6 1874.9c0 11.03-44.77 20-100 20-55.22 0-100-8.97-100-20" stroke="#000" stroke-width="2" fill="none"/><use xlink:href="#C" transform="matrix(1,0,0,1,1289.6040274589172,1899.8889945337537) translate(80.18518518518519 82.27083333333334)"/><path d="M1264.6 2063.9h240v60h-240z" stroke="#000" stroke-opacity="0" stroke-width="2" fill="#fff" fill-opacity="0"/><use xlink:href="#D" transform="matrix(1,0,0,1,1269.6040274589172,2068.8889945337532) translate(4.407407407407391 30.708333333333336)"/><path d="M1734.1 1355.87l-281.72 485.82M1734.1 1355.9l.5-.9" stroke="#000" stroke-width="2" fill="none"/><path d="M1444.73 1854.9l3.14-14.67 8.02 4.65z" stroke="#000" stroke-width="2"/><path d="M1524.6 1455h140v52.6h-140z" stroke="#000" stroke-opacity="0" stroke-width="2" fill="#fff" fill-opacity="0"/><use xlink:href="#E" transform="matrix(1,0,0,1,1529.6040274589172,1460.0000000000002) translate(8.85185185185184 26.708333333333336)"/><use xlink:href="#F" transform="matrix(1,0,0,1,1529.6040274589172,1460.0000000000002) translate(72.33333333333334 26.708333333333336)"/><path d="M1384.25 1852.95L1201.2 1372.3" stroke="#000" stroke-width="2" fill="none"/><path d="M1385.68 1853.92l-1.07-.03h-1.06l-.24-.6 1.87-.73z"/><path d="M1195.76 1358.02l9.4 11.7-8.66 3.3z" stroke="#000" stroke-width="2"/><path d="M1109.6 1455h140v60.5h-140z" stroke="#000" stroke-opacity="0" stroke-width="2" fill="#fff" fill-opacity="0"/><g><use xlink:href="#G" transform="matrix(1,0,0,1,1114.6040274589172,1460.0000000000002) translate(7.999999999999993 30.895833333333336)"/><use xlink:href="#F" transform="matrix(1,0,0,1,1114.6040274589172,1460.0000000000002) translate(73.18518518518519 30.895833333333336)"/></g><path d="M2719.6 1087.15h86v106h-86z" stroke="#000" stroke-opacity="0" stroke-width="2" fill="#fff" fill-opacity="0"/><g><use xlink:href="#H" transform="matrix(1,0,0,1,2724.6040274589177,1092.1506793686308) translate(4.666666666666671 67)"/></g><path d="M2155.6 1111.98l360.56 28.4M2155.63 1111.98l-1.03-.08" stroke="#000" stroke-width="2" fill="none"/><path d="M2531.38 1141.6l-14.6 3.5.74-9.25z" stroke="#000" stroke-width="2"/><g><path d="M2223.75 1078.08l231.22 18.24-2.46 31.16-231.2-18.25z" stroke="#000" stroke-opacity="0" stroke-width="2" fill="#fff" fill-opacity="0"/></g><g><use xlink:href="#l" transform="matrix(0.9969004786677277,0.07867296633568217,-0.07867296633568217,0.9969004786677277,2228.3407363805204,1083.4532394297603) translate(10.444444444444443 17.77777777777778)"/><use xlink:href="#m" transform="matrix(0.9969004786677277,0.07867296633568217,-0.07867296633568217,0.9969004786677277,2228.3407363805204,1083.4532394297603) translate(51.18518518518518 17.77777777777778)"/><use xlink:href="#n" transform="matrix(0.9969004786677277,0.07867296633568217,-0.07867296633568217,0.9969004786677277,2228.3407363805204,1083.4532394297603) translate(93.1604938271605 17.77777777777778)"/><use xlink:href="#o" transform="matrix(0.9969004786677277,0.07867296633568217,-0.07867296633568217,0.9969004786677277,2228.3407363805204,1083.4532394297603) translate(128.9012345679012 17.77777777777778)"/></g><g><path d="M2215.03 1121.2l240.5 19.18-2.9 36.56-240.52-19.2z" stroke="#000" stroke-opacity="0" stroke-width="2" fill="#fff" fill-opacity="0"/></g><g><use xlink:href="#q" transform="matrix(0.9968321066311805,0.07953459114902663,-0.07953459114902663,0.9968321066311805,2219.6147047389286,1126.5770546520666) translate(23.53086419753086 19.46527777777778)"/><use xlink:href="#r" transform="matrix(0.9968321066311805,0.07953459114902663,-0.07953459114902663,0.9968321066311805,2219.6147047389286,1126.5770546520666) translate(81.4320987654321 19.46527777777778)"/><use xlink:href="#n" transform="matrix(0.9968321066311805,0.07953459114902663,-0.07953459114902663,0.9968321066311805,2219.6147047389286,1126.5770546520666) translate(113.46913580246914 19.46527777777778)"/><use xlink:href="#s" transform="matrix(0.9968321066311805,0.07953459114902663,-0.07953459114902663,0.9968321066311805,2219.6147047389286,1126.5770546520666) translate(149.20987654320987 19.46527777777778)"/></g><path d="M976.25 535h200v80h-200z" stroke="#000" stroke-opacity="0" stroke-width="2" fill="#fff" fill-opacity="0"/><g><use xlink:href="#I" transform="matrix(1,0,0,1,981.2538384070124,540.0000000000002) translate(27.444444444444443 42.9375)"/></g><path d="M1754.6 1730h256.34v100H1754.6z" stroke="#000" stroke-opacity="0" stroke-width="2" fill="#fff" fill-opacity="0"/><g><use xlink:href="#J" transform="matrix(1,0,0,1,1759.6040274589177,1735.0000000000007) translate(9.111111111111114 51.6875)"/><use xlink:href="#K" transform="matrix(1,0,0,1,1759.6040274589177,1735.0000000000007) translate(98 51.6875)"/></g><path d="M3004.6 535c16.57 0 30 13.43 30 30v960c0 16.57-13.43 30-30 30H1006.25c-16.56 0-30-13.43-30-30V565c0-16.57 13.44-30 30-30z" stroke="#000" stroke-width="2" fill="#0c7cba" fill-opacity=".36"/><path d="M3024.6 1743.63c16.57 0 30 13.43 30 30v358.24c0 16.57-13.43 30-30 30h-1260c-16.56 0-30-13.43-30-30v-358.24c0-16.57 13.44-30 30-30z" stroke="#000" stroke-width="2" fill="#c92d39" fill-opacity=".36"/><path d="M1524.6 1743.63c16.57 0 30 13.43 30 30v358.24c0 16.57-13.43 30-30 30h-440c-16.56 0-30-13.43-30-30v-358.24c0-16.57 13.44-30 30-30z" stroke="#000" stroke-width="2" fill="#7ab648" fill-opacity=".36"/><path d="M1084.6 1743.62h190v102.27h-190z" stroke="#000" stroke-opacity="0" stroke-width="2" fill="#fff" fill-opacity="0"/><g><use xlink:href="#L" transform="matrix(1,0,0,1,1089.6040274589172,1748.6249999999995) translate(0 34.90625)"/><use xlink:href="#M" transform="matrix(1,0,0,1,1089.6040274589172,1748.6249999999995) translate(0 82.90625)"/></g><path d="M764.6 392c16.57 0 30 13.43 30 30v203c0 16.57-13.43 30-30 30h-180c-16.56 0-30-13.43-30-30V422c0-16.57 13.44-30 30-30z" stroke="#000" stroke-width="2" fill="#19967d" fill-opacity=".43"/><path d="M574.6 399h200v80h-200z" stroke="#000" stroke-opacity="0" stroke-width="2" fill="#fff" fill-opacity="0"/><g><use xlink:href="#N" transform="matrix(1,0,0,1,579.604027458917,404) translate(43.94444444444445 42.9375)"/></g><path d="M470 870.42c16.57 0 30 13.43 30 30v207.6c0 16.56-13.43 30-30 30H290c-16.57 0-30-13.44-30-30V900.4c0-16.57 13.43-30 30-30z" stroke="#000" stroke-width="2" fill="#f9d2de" fill-opacity=".43"/><path d="M286.35 892.4h187.3v106h-187.3z" stroke="#000" stroke-opacity="0" stroke-width="2" fill="#fff" fill-opacity="0"/><g><use xlink:href="#O" transform="matrix(1,0,0,1,291.3489931352707,897.3923295640022) translate(8.055555555555557 35)"/><use xlink:href="#P" transform="matrix(1,0,0,1,291.3489931352707,897.3923295640022) translate(74.72222222222221 35)"/><use xlink:href="#Q" transform="matrix(1,0,0,1,291.3489931352707,897.3923295640022) translate(24.611111111111114 83)"/></g><path d="M468.5 1089.3H999" stroke="#000" stroke-width="2" fill="none"/><path d="M453.24 1089.3l14.26-4.65v9.27z" stroke="#000" stroke-width="2"/><path d="M998.97 1089.3h1.03" stroke="#000" stroke-width="2" fill="none"/><path d="M602.8 1079.07H880V1138H602.8z" stroke="#000" stroke-opacity="0" stroke-width="2" fill="#fff" fill-opacity="0"/><g><use xlink:href="#R" transform="matrix(1,0,0,1,607.8144192035062,1084.0651752921742) translate(0.20370370370369528 30.02777777777778)"/><use xlink:href="#S" transform="matrix(1,0,0,1,607.8144192035062,1084.0651752921742) translate(74.09259259259258 30.02777777777778)"/><use xlink:href="#T" transform="matrix(1,0,0,1,607.8144192035062,1084.0651752921742) translate(145.69753086419752 30.02777777777778)"/><use xlink:href="#U" transform="matrix(1,0,0,1,607.8144192035062,1084.0651752921742) translate(198.72222222222223 30.02777777777778)"/></g><defs><path d="M135-143c-3-34-86-38-87 0 15 53 115 12 119 90S17 21 10-45l28-5c4 36 97 45 98 0-10-56-113-15-118-90-4-57 82-63 122-42 12 7 21 19 24 35" id="V"/><path d="M100-194c63 0 86 42 84 106H49c0 40 14 67 53 68 26 1 43-12 49-29l28 8c-11 28-37 45-77 45C44 4 14-33 15-96c1-61 26-98 85-98zm52 81c6-60-76-77-97-28-3 7-6 17-6 28h103" id="W"/><path d="M114-163C36-179 61-72 57 0H25l-1-190h30c1 12-1 29 2 39 6-27 23-49 58-41v29" id="X"/><path d="M108 0H70L1-190h34L89-25l56-165h34" id="Y"/><g id="a"><use transform="matrix(0.07407407407407408,0,0,0.07407407407407408,0,0)" xlink:href="#V"/><use transform="matrix(0.07407407407407408,0,0,0.07407407407407408,13.333333333333336,0)" xlink:href="#W"/><use transform="matrix(0.07407407407407408,0,0,0.07407407407407408,28.148148148148152,0)" xlink:href="#X"/><use transform="matrix(0.07407407407407408,0,0,0.07407407407407408,36.96296296296297,0)" xlink:href="#Y"/><use transform="matrix(0.07407407407407408,0,0,0.07407407407407408,50.296296296296305,0)" xlink:href="#W"/><use transform="matrix(0.07407407407407408,0,0,0.07407407407407408,65.11111111111111,0)" xlink:href="#X"/></g><path d="M117-194c89-4 53 116 60 194h-32v-121c0-31-8-49-39-48C34-167 62-67 57 0H25l-1-190h30c1 10-1 24 2 32 11-22 29-35 61-36" id="Z"/><path d="M177-190C167-65 218 103 67 71c-23-6-38-20-44-43l32-5c15 47 100 32 89-28v-30C133-14 115 1 83 1 29 1 15-40 15-95c0-56 16-97 71-98 29-1 48 16 59 35 1-10 0-23 2-32h30zM94-22c36 0 50-32 50-73 0-42-14-75-50-75-39 0-46 34-46 75s6 73 46 73" id="aa"/><path d="M24-231v-30h32v30H24zM24 0v-190h32V0H24" id="ab"/><g id="b"><use transform="matrix(0.07407407407407408,0,0,0.07407407407407408,0,0)" xlink:href="#W"/><use transform="matrix(0.07407407407407408,0,0,0.07407407407407408,14.814814814814817,0)" xlink:href="#Z"/><use transform="matrix(0.07407407407407408,0,0,0.07407407407407408,29.629629629629633,0)" xlink:href="#aa"/><use transform="matrix(0.07407407407407408,0,0,0.07407407407407408,44.44444444444445,0)" xlink:href="#ab"/><use transform="matrix(0.07407407407407408,0,0,0.07407407407407408,50.296296296296305,0)" xlink:href="#Z"/><use transform="matrix(0.07407407407407408,0,0,0.07407407407407408,65.11111111111111,0)" xlink:href="#W"/></g><path d="M126-127c33 6 58 20 58 59 0 88-139 92-164 29-3-8-5-16-6-25l32-3c6 27 21 44 54 44 32 0 52-15 52-46 0-38-36-46-79-43v-28c39 1 72-4 72-42 0-27-17-43-46-43-28 0-47 15-49 41l-32-3c6-42 35-63 81-64 48-1 79 21 79 65 0 36-21 52-52 59" id="ac"/><path d="M85-194c31 0 48 13 60 33l-1-100h32l1 261h-30c-2-10 0-23-3-31C134-8 116 4 85 4 32 4 16-35 15-94c0-66 23-100 70-100zm9 24c-40 0-46 34-46 75 0 40 6 74 45 74 42 0 51-32 51-76 0-42-9-74-50-73" id="ad"/><path d="M96-169c-40 0-48 33-48 73s9 75 48 75c24 0 41-14 43-38l32 2c-6 37-31 61-74 61-59 0-76-41-82-99-10-93 101-131 147-64 4 7 5 14 7 22l-32 3c-4-21-16-35-41-35" id="ae"/><path d="M141-36C126-15 110 5 73 4 37 3 15-17 15-53c-1-64 63-63 125-63 3-35-9-54-41-54-24 1-41 7-42 31l-33-3c5-37 33-52 76-52 45 0 72 20 72 64v82c-1 20 7 32 28 27v20c-31 9-61-2-59-35zM48-53c0 20 12 33 32 33 41-3 63-29 60-74-43 2-92-5-92 41" id="af"/><g id="c"><use transform="matrix(0.07407407407407408,0,0,0.07407407407407408,0,0)" xlink:href="#V"/><use transform="matrix(0.07407407407407408,0,0,0.07407407407407408,13.333333333333336,0)" xlink:href="#ac"/><use transform="matrix(0.07407407407407408,0,0,0.07407407407407408,28.148148148148152,0)" xlink:href="#V"/><use transform="matrix(0.07407407407407408,0,0,0.07407407407407408,41.48148148148149,0)" xlink:href="#ab"/><use transform="matrix(0.07407407407407408,0,0,0.07407407407407408,47.33333333333334,0)" xlink:href="#ad"/><use transform="matrix(0.07407407407407408,0,0,0.07407407407407408,62.14814814814816,0)" xlink:href="#W"/><use transform="matrix(0.07407407407407408,0,0,0.07407407407407408,76.96296296296298,0)" xlink:href="#ae"/><use transform="matrix(0.07407407407407408,0,0,0.07407407407407408,90.2962962962963,0)" xlink:href="#af"/><use transform="matrix(0.07407407407407408,0,0,0.07407407407407408,105.11111111111111,0)" xlink:href="#X"/></g><path d="M59-47c-2 24 18 29 38 22v24C64 9 27 4 27-40v-127H5v-23h24l9-43h21v43h35v23H59v120" id="ag"/><path d="M143 0L79-87 56-68V0H24v-261h32v163l83-92h37l-77 82L181 0h-38" id="ah"/><g id="d"><use transform="matrix(0.07407407407407408,0,0,0.07407407407407408,0,0)" xlink:href="#ag"/><use transform="matrix(0.07407407407407408,0,0,0.07407407407407408,7.407407407407408,0)" xlink:href="#af"/><use transform="matrix(0.07407407407407408,0,0,0.07407407407407408,22.222222222222225,0)" xlink:href="#V"/><use transform="matrix(0.07407407407407408,0,0,0.07407407407407408,35.55555555555556,0)" xlink:href="#ah"/></g><path d="M106-169C34-169 62-67 57 0H25v-261h32l-1 103c12-21 28-36 61-36 89 0 53 116 60 194h-32v-121c2-32-8-49-39-48" id="ai"/><g id="e"><use transform="matrix(0.07407407407407408,0,0,0.07407407407407408,0,0)" xlink:href="#X"/><use transform="matrix(0.07407407407407408,0,0,0.07407407407407408,8.814814814814817,0)" xlink:href="#W"/><use transform="matrix(0.07407407407407408,0,0,0.07407407407407408,23.629629629629633,0)" xlink:href="#V"/><use transform="matrix(0.07407407407407408,0,0,0.07407407407407408,36.96296296296297,0)" xlink:href="#W"/><use transform="matrix(0.07407407407407408,0,0,0.07407407407407408,51.777777777777786,0)" xlink:href="#af"/><use transform="matrix(0.07407407407407408,0,0,0.07407407407407408,66.59259259259261,0)" xlink:href="#X"/><use transform="matrix(0.07407407407407408,0,0,0.07407407407407408,75.40740740740742,0)" xlink:href="#ae"/><use transform="matrix(0.07407407407407408,0,0,0.07407407407407408,88.74074074074078,0)" xlink:href="#ai"/><use transform="matrix(0.07407407407407408,0,0,0.07407407407407408,103.55555555555557,0)" xlink:href="#W"/><use transform="matrix(0.07407407407407408,0,0,0.07407407407407408,118.37037037037038,0)" xlink:href="#X"/></g><path d="M210-169c-67 3-38 105-44 169h-31v-121c0-29-5-50-35-48C34-165 62-65 56 0H25l-1-190h30c1 10-1 24 2 32 10-44 99-50 107 0 11-21 27-35 58-36 85-2 47 119 55 194h-31v-121c0-29-5-49-35-48" id="aj"/><g id="f"><use transform="matrix(0.06172839506172839,0,0,0.06172839506172839,0,0)" xlink:href="#aj"/><use transform="matrix(0.06172839506172839,0,0,0.06172839506172839,18.456790123456788,0)" xlink:href="#af"/><use transform="matrix(0.06172839506172839,0,0,0.06172839506172839,30.80246913580247,0)" xlink:href="#X"/><use transform="matrix(0.06172839506172839,0,0,0.06172839506172839,38.148148148148145,0)" xlink:href="#ab"/><use transform="matrix(0.06172839506172839,0,0,0.06172839506172839,43.02469135802469,0)" xlink:href="#Z"/><use transform="matrix(0.06172839506172839,0,0,0.06172839506172839,55.37037037037037,0)" xlink:href="#W"/><use transform="matrix(0.06172839506172839,0,0,0.06172839506172839,67.71604938271605,0)" xlink:href="#X"/></g><path d="M205 0l-28-72H64L36 0H1l101-248h38L239 0h-34zm-38-99l-47-123c-12 45-31 82-46 123h93" id="ak"/><path d="M30-248c87 1 191-15 191 75 0 78-77 80-158 76V0H30v-248zm33 125c57 0 124 11 124-50 0-59-68-47-124-48v98" id="al"/><path d="M33 0v-248h34V0H33" id="am"/><g id="g"><use transform="matrix(0.06172839506172839,0,0,0.06172839506172839,0,0)" xlink:href="#ak"/><use transform="matrix(0.06172839506172839,0,0,0.06172839506172839,14.814814814814813,0)" xlink:href="#al"/><use transform="matrix(0.06172839506172839,0,0,0.06172839506172839,29.629629629629626,0)" xlink:href="#am"/></g><path d="M87 75C49 33 22-17 22-94c0-76 28-126 65-167h31c-38 41-64 92-64 168S80 34 118 75H87" id="an"/><path d="M206 0h-36l-40-164L89 0H53L-1-190h32L70-26l43-164h34l41 164 42-164h31" id="ao"/><path d="M100-194c62-1 85 37 85 99 1 63-27 99-86 99S16-35 15-95c0-66 28-99 85-99zM99-20c44 1 53-31 53-75 0-43-8-75-51-75s-53 32-53 75 10 74 51 75" id="ap"/><path d="M101-234c-31-9-42 10-38 44h38v23H63V0H32v-167H5v-23h27c-7-52 17-82 69-68v24" id="aq"/><path d="M24 0v-261h32V0H24" id="ar"/><path d="M68-38c1 34 0 65-14 84H32c9-13 17-26 17-46H33v-38h35" id="as"/><g id="h"><use transform="matrix(0.06172839506172839,0,0,0.06172839506172839,0,0)" xlink:href="#an"/><use transform="matrix(0.06172839506172839,0,0,0.06172839506172839,7.345679012345679,0)" xlink:href="#ao"/><use transform="matrix(0.06172839506172839,0,0,0.06172839506172839,23.333333333333332,0)" xlink:href="#ap"/><use transform="matrix(0.06172839506172839,0,0,0.06172839506172839,35.67901234567901,0)" xlink:href="#X"/><use transform="matrix(0.06172839506172839,0,0,0.06172839506172839,43.02469135802469,0)" xlink:href="#ah"/><use transform="matrix(0.06172839506172839,0,0,0.06172839506172839,54.1358024691358,0)" xlink:href="#aq"/><use transform="matrix(0.06172839506172839,0,0,0.06172839506172839,60.30864197530864,0)" xlink:href="#ar"/><use transform="matrix(0.06172839506172839,0,0,0.06172839506172839,65.18518518518518,0)" xlink:href="#ap"/><use transform="matrix(0.06172839506172839,0,0,0.06172839506172839,77.53086419753086,0)" xlink:href="#ao"/><use transform="matrix(0.06172839506172839,0,0,0.06172839506172839,92.28395061728395,0)" xlink:href="#as"/></g><path d="M115-194c55 1 70 41 70 98S169 2 115 4C84 4 66-9 55-30l1 105H24l-1-265h31l2 30c10-21 28-34 59-34zm-8 174c40 0 45-34 45-75s-6-73-45-74c-42 0-51 32-51 76 0 43 10 73 51 73" id="at"/><path d="M84 4C-5 8 30-112 23-190h32v120c0 31 7 50 39 49 72-2 45-101 50-169h31l1 190h-30c-1-10 1-25-2-33-11 22-28 36-60 37" id="au"/><g id="i"><use transform="matrix(0.06172839506172839,0,0,0.06172839506172839,0,0)" xlink:href="#ab"/><use transform="matrix(0.06172839506172839,0,0,0.06172839506172839,4.876543209876543,0)" xlink:href="#Z"/><use transform="matrix(0.06172839506172839,0,0,0.06172839506172839,17.22222222222222,0)" xlink:href="#at"/><use transform="matrix(0.06172839506172839,0,0,0.06172839506172839,29.5679012345679,0)" xlink:href="#au"/><use transform="matrix(0.06172839506172839,0,0,0.06172839506172839,41.913580246913575,0)" xlink:href="#ag"/><use transform="matrix(0.06172839506172839,0,0,0.06172839506172839,48.08641975308642,0)" xlink:href="#V"/><use transform="matrix(0.06172839506172839,0,0,0.06172839506172839,59.19753086419753,0)" xlink:href="#as"/></g><path d="M33-261c38 41 65 92 65 168S71 34 33 75H2C39 34 66-17 66-93S39-220 2-261h31" id="av"/><g id="j"><use transform="matrix(0.06172839506172839,0,0,0.06172839506172839,0,0)" xlink:href="#ag"/><use transform="matrix(0.06172839506172839,0,0,0.06172839506172839,6.172839506172839,0)" xlink:href="#ap"/><use transform="matrix(0.06172839506172839,0,0,0.06172839506172839,18.51851851851852,0)" xlink:href="#ah"/><use transform="matrix(0.06172839506172839,0,0,0.06172839506172839,29.62962962962963,0)" xlink:href="#W"/><use transform="matrix(0.06172839506172839,0,0,0.06172839506172839,41.97530864197531,0)" xlink:href="#Z"/><use transform="matrix(0.06172839506172839,0,0,0.06172839506172839,54.32098765432099,0)" xlink:href="#av"/></g><path d="M115-194c53 0 69 39 70 98 0 66-23 100-70 100C84 3 66-7 56-30L54 0H23l1-261h32v101c10-23 28-34 59-34zm-8 174c40 0 45-34 45-75 0-40-5-75-45-74-42 0-51 32-51 76 0 43 10 73 51 73" id="aw"/><g id="k"><use transform="matrix(0.07407407407407408,0,0,0.07407407407407408,0,0)" xlink:href="#af"/><use transform="matrix(0.07407407407407408,0,0,0.07407407407407408,14.814814814814817,0)" xlink:href="#X"/><use transform="matrix(0.07407407407407408,0,0,0.07407407407407408,23.629629629629633,0)" xlink:href="#aw"/><use transform="matrix(0.07407407407407408,0,0,0.07407407407407408,38.44444444444445,0)" xlink:href="#ap"/><use transform="matrix(0.07407407407407408,0,0,0.07407407407407408,53.25925925925927,0)" xlink:href="#X"/><use transform="matrix(0.07407407407407408,0,0,0.07407407407407408,62.07407407407408,0)" xlink:href="#ab"/><use transform="matrix(0.07407407407407408,0,0,0.07407407407407408,67.92592592592594,0)" xlink:href="#V"/><use transform="matrix(0.07407407407407408,0,0,0.07407407407407408,81.25925925925927,0)" xlink:href="#ag"/></g><path d="M134-131c28 9 52 24 51 62-1 50-34 73-85 73S17-19 16-69c0-36 21-54 49-61-75-25-45-126 34-121 46 3 78 18 79 63 0 33-17 51-44 57zm-34-11c31 1 46-15 46-44 0-28-17-43-47-42-29 0-46 13-45 42 1 28 16 44 46 44zm1 122c35 0 51-18 51-52 0-30-18-46-53-46-33 0-51 17-51 47 0 34 19 51 53 51" id="ax"/><g id="l"><use transform="matrix(0.06172839506172839,0,0,0.06172839506172839,0,0)" xlink:href="#ah"/><use transform="matrix(0.06172839506172839,0,0,0.06172839506172839,11.11111111111111,0)" xlink:href="#ax"/><use transform="matrix(0.06172839506172839,0,0,0.06172839506172839,23.45679012345679,0)" xlink:href="#V"/></g><g id="m"><use transform="matrix(0.06172839506172839,0,0,0.06172839506172839,0,0)" xlink:href="#ak"/><use transform="matrix(0.06172839506172839,0,0,0.06172839506172839,14.814814814814813,0)" xlink:href="#al"/><use transform="matrix(0.06172839506172839,0,0,0.06172839506172839,29.629629629629626,0)" xlink:href="#am"/></g><path d="M24-231v-30h32v30H24zM-9 49c24 4 33-6 33-30v-209h32V24c2 40-23 58-65 49V49" id="ay"/><g id="n"><use transform="matrix(0.06172839506172839,0,0,0.06172839506172839,0,0)" xlink:href="#ay"/><use transform="matrix(0.06172839506172839,0,0,0.06172839506172839,4.876543209876543,0)" xlink:href="#ap"/><use transform="matrix(0.06172839506172839,0,0,0.06172839506172839,17.22222222222222,0)" xlink:href="#aw"/></g><g id="o"><use transform="matrix(0.06172839506172839,0,0,0.06172839506172839,0,0)" xlink:href="#ad"/><use transform="matrix(0.06172839506172839,0,0,0.06172839506172839,12.345679012345679,0)" xlink:href="#ab"/><use transform="matrix(0.06172839506172839,0,0,0.06172839506172839,17.22222222222222,0)" xlink:href="#V"/><use transform="matrix(0.06172839506172839,0,0,0.06172839506172839,28.333333333333332,0)" xlink:href="#at"/><use transform="matrix(0.06172839506172839,0,0,0.06172839506172839,40.67901234567901,0)" xlink:href="#af"/><use transform="matrix(0.06172839506172839,0,0,0.06172839506172839,53.02469135802469,0)" xlink:href="#ag"/><use transform="matrix(0.06172839506172839,0,0,0.06172839506172839,59.19753086419753,0)" xlink:href="#ae"/><use transform="matrix(0.06172839506172839,0,0,0.06172839506172839,70.30864197530865,0)" xlink:href="#ai"/></g><path d="M30-248c118-7 216 8 213 122C240-48 200 0 122 0H30v-248zM63-27c89 8 146-16 146-99s-60-101-146-95v194" id="az"/><g id="p"><use transform="matrix(0.06172839506172839,0,0,0.06172839506172839,0,0)" xlink:href="#au"/><use transform="matrix(0.06172839506172839,0,0,0.06172839506172839,12.345679012345679,0)" xlink:href="#V"/><use transform="matrix(0.06172839506172839,0,0,0.06172839506172839,23.45679012345679,0)" xlink:href="#W"/><use transform="matrix(0.06172839506172839,0,0,0.06172839506172839,35.80246913580247,0)" xlink:href="#X"/><use transform="matrix(0.06172839506172839,0,0,0.06172839506172839,43.148148148148145,0)" xlink:href="#am"/><use transform="matrix(0.06172839506172839,0,0,0.06172839506172839,49.32098765432099,0)" xlink:href="#az"/><use transform="matrix(0.06172839506172839,0,0,0.06172839506172839,65.30864197530865,0)" xlink:href="#av"/></g><g id="q"><use transform="matrix(0.06172839506172839,0,0,0.06172839506172839,0,0)" xlink:href="#ar"/><use transform="matrix(0.06172839506172839,0,0,0.06172839506172839,4.876543209876543,0)" xlink:href="#ab"/><use transform="matrix(0.06172839506172839,0,0,0.06172839506172839,9.753086419753085,0)" xlink:href="#V"/><use transform="matrix(0.06172839506172839,0,0,0.06172839506172839,20.864197530864196,0)" xlink:href="#ag"/><use transform="matrix(0.06172839506172839,0,0,0.06172839506172839,27.037037037037035,0)" xlink:href="#W"/><use transform="matrix(0.06172839506172839,0,0,0.06172839506172839,39.382716049382715,0)" xlink:href="#Z"/></g><g id="r"><use transform="matrix(0.06172839506172839,0,0,0.06172839506172839,0,0)" xlink:href="#aq"/><use transform="matrix(0.06172839506172839,0,0,0.06172839506172839,6.172839506172839,0)" xlink:href="#ap"/><use transform="matrix(0.06172839506172839,0,0,0.06172839506172839,18.51851851851852,0)" xlink:href="#X"/></g><g id="s"><use transform="matrix(0.06172839506172839,0,0,0.06172839506172839,0,0)" xlink:href="#V"/><use transform="matrix(0.06172839506172839,0,0,0.06172839506172839,11.11111111111111,0)" xlink:href="#ag"/><use transform="matrix(0.06172839506172839,0,0,0.06172839506172839,17.28395061728395,0)" xlink:href="#af"/><use transform="matrix(0.06172839506172839,0,0,0.06172839506172839,29.629629629629626,0)" xlink:href="#ag"/><use transform="matrix(0.06172839506172839,0,0,0.06172839506172839,35.80246913580247,0)" xlink:href="#au"/><use transform="matrix(0.06172839506172839,0,0,0.06172839506172839,48.148148148148145,0)" xlink:href="#V"/></g><path d="M185-189c-5-48-123-54-124 2 14 75 158 14 163 119 3 78-121 87-175 55-17-10-28-26-33-46l33-7c5 56 141 63 141-1 0-78-155-14-162-118-5-82 145-84 179-34 5 7 8 16 11 25" id="aA"/><g id="t"><use transform="matrix(0.07407407407407408,0,0,0.07407407407407408,0,0)" xlink:href="#aA"/><use transform="matrix(0.07407407407407408,0,0,0.07407407407407408,17.77777777777778,0)" xlink:href="#ac"/></g><path d="M212-179c-10-28-35-45-73-45-59 0-87 40-87 99 0 60 29 101 89 101 43 0 62-24 78-52l27 14C228-24 195 4 139 4 59 4 22-46 18-125c-6-104 99-153 187-111 19 9 31 26 39 46" id="aB"/><g id="u"><use transform="matrix(0.07407407407407408,0,0,0.07407407407407408,0,0)" xlink:href="#aB"/><use transform="matrix(0.07407407407407408,0,0,0.07407407407407408,19.185185185185187,0)" xlink:href="#ap"/><use transform="matrix(0.07407407407407408,0,0,0.07407407407407408,34,0)" xlink:href="#aj"/><use transform="matrix(0.07407407407407408,0,0,0.07407407407407408,56.14814814814815,0)" xlink:href="#aj"/><use transform="matrix(0.07407407407407408,0,0,0.07407407407407408,78.2962962962963,0)" xlink:href="#ap"/><use transform="matrix(0.07407407407407408,0,0,0.07407407407407408,93.1111111111111,0)" xlink:href="#Z"/><use transform="matrix(0.07407407407407408,0,0,0.07407407407407408,107.92592592592592,0)" xlink:href="#V"/></g><g id="v"><use transform="matrix(0.07407407407407408,0,0,0.07407407407407408,0,0)" xlink:href="#az"/><use transform="matrix(0.07407407407407408,0,0,0.07407407407407408,19.185185185185187,0)" xlink:href="#af"/><use transform="matrix(0.07407407407407408,0,0,0.07407407407407408,34,0)" xlink:href="#ag"/><use transform="matrix(0.07407407407407408,0,0,0.07407407407407408,41.407407407407405,0)" xlink:href="#af"/></g><path d="M232-93c-1 65-40 97-104 97C67 4 28-28 28-90v-158h33c8 89-33 224 67 224 102 0 64-133 71-224h33v155" id="aC"/><g id="w"><use transform="matrix(0.07407407407407408,0,0,0.07407407407407408,0,0)" xlink:href="#aC"/><use transform="matrix(0.07407407407407408,0,0,0.07407407407407408,19.185185185185187,0)" xlink:href="#V"/><use transform="matrix(0.07407407407407408,0,0,0.07407407407407408,32.51851851851852,0)" xlink:href="#W"/><use transform="matrix(0.07407407407407408,0,0,0.07407407407407408,47.33333333333334,0)" xlink:href="#X"/></g><path d="M30 0v-248h187v28H63v79h144v27H63v87h162V0H30" id="aD"/><g id="x"><use transform="matrix(0.07407407407407408,0,0,0.07407407407407408,0,0)" xlink:href="#aD"/><use transform="matrix(0.07407407407407408,0,0,0.07407407407407408,17.77777777777778,0)" xlink:href="#Z"/><use transform="matrix(0.07407407407407408,0,0,0.07407407407407408,32.592592592592595,0)" xlink:href="#aa"/><use transform="matrix(0.07407407407407408,0,0,0.07407407407407408,47.40740740740741,0)" xlink:href="#ab"/><use transform="matrix(0.07407407407407408,0,0,0.07407407407407408,53.25925925925927,0)" xlink:href="#Z"/><use transform="matrix(0.07407407407407408,0,0,0.07407407407407408,68.07407407407408,0)" xlink:href="#W"/></g><path d="M266 0h-40l-56-210L115 0H75L2-248h35L96-30l15-64 43-154h32l59 218 59-218h35" id="aE"/><g id="y"><use transform="matrix(0.07407407407407408,0,0,0.07407407407407408,0,0)" xlink:href="#aE"/><use transform="matrix(0.07407407407407408,0,0,0.07407407407407408,24.592592592592595,0)" xlink:href="#ap"/><use transform="matrix(0.07407407407407408,0,0,0.07407407407407408,39.40740740740741,0)" xlink:href="#X"/><use transform="matrix(0.07407407407407408,0,0,0.07407407407407408,48.22222222222223,0)" xlink:href="#ah"/><use transform="matrix(0.07407407407407408,0,0,0.07407407407407408,61.555555555555564,0)" xlink:href="#V"/><use transform="matrix(0.07407407407407408,0,0,0.07407407407407408,74.8888888888889,0)" xlink:href="#at"/><use transform="matrix(0.07407407407407408,0,0,0.07407407407407408,89.70370370370371,0)" xlink:href="#af"/><use transform="matrix(0.07407407407407408,0,0,0.07407407407407408,104.51851851851853,0)" xlink:href="#ae"/><use transform="matrix(0.07407407407407408,0,0,0.07407407407407408,117.85185185185189,0)" xlink:href="#W"/></g><path d="M179-190L93 31C79 59 56 82 12 73V49c39 6 53-20 64-50L1-190h34L92-34l54-156h33" id="aF"/><g id="z"><use transform="matrix(0.06172839506172839,0,0,0.06172839506172839,0,0)" xlink:href="#ad"/><use transform="matrix(0.06172839506172839,0,0,0.06172839506172839,12.345679012345679,0)" xlink:href="#W"/><use transform="matrix(0.06172839506172839,0,0,0.06172839506172839,24.691358024691358,0)" xlink:href="#at"/><use transform="matrix(0.06172839506172839,0,0,0.06172839506172839,37.03703703703704,0)" xlink:href="#ar"/><use transform="matrix(0.06172839506172839,0,0,0.06172839506172839,41.91358024691358,0)" xlink:href="#ap"/><use transform="matrix(0.06172839506172839,0,0,0.06172839506172839,54.25925925925926,0)" xlink:href="#aF"/><use transform="matrix(0.06172839506172839,0,0,0.06172839506172839,65.37037037037037,0)" xlink:href="#aj"/><use transform="matrix(0.06172839506172839,0,0,0.06172839506172839,83.82716049382715,0)" xlink:href="#W"/><use transform="matrix(0.06172839506172839,0,0,0.06172839506172839,96.17283950617283,0)" xlink:href="#Z"/><use transform="matrix(0.06172839506172839,0,0,0.06172839506172839,108.51851851851852,0)" xlink:href="#ag"/></g><g id="A"><use transform="matrix(0.06172839506172839,0,0,0.06172839506172839,0,0)" xlink:href="#ay"/><use transform="matrix(0.06172839506172839,0,0,0.06172839506172839,4.876543209876543,0)" xlink:href="#ap"/><use transform="matrix(0.06172839506172839,0,0,0.06172839506172839,17.22222222222222,0)" xlink:href="#aw"/></g><g id="B"><use transform="matrix(0.06172839506172839,0,0,0.06172839506172839,0,0)" xlink:href="#af"/><use transform="matrix(0.06172839506172839,0,0,0.06172839506172839,12.345679012345679,0)" xlink:href="#X"/><use transform="matrix(0.06172839506172839,0,0,0.06172839506172839,19.691358024691358,0)" xlink:href="#aw"/><use transform="matrix(0.06172839506172839,0,0,0.06172839506172839,32.03703703703704,0)" xlink:href="#ap"/><use transform="matrix(0.06172839506172839,0,0,0.06172839506172839,44.382716049382715,0)" xlink:href="#X"/><use transform="matrix(0.06172839506172839,0,0,0.06172839506172839,51.72839506172839,0)" xlink:href="#ab"/><use transform="matrix(0.06172839506172839,0,0,0.06172839506172839,56.60493827160494,0)" xlink:href="#V"/><use transform="matrix(0.06172839506172839,0,0,0.06172839506172839,67.71604938271605,0)" xlink:href="#ag"/></g><g id="C"><use transform="matrix(0.07407407407407408,0,0,0.07407407407407408,0,0)" xlink:href="#ad"/><use transform="matrix(0.07407407407407408,0,0,0.07407407407407408,14.814814814814817,0)" xlink:href="#aw"/></g><path d="M197 0v-115H63V0H30v-248h33v105h134v-105h34V0h-34" id="aG"/><g id="D"><use transform="matrix(0.07407407407407408,0,0,0.07407407407407408,0,0)" xlink:href="#aE"/><use transform="matrix(0.07407407407407408,0,0,0.07407407407407408,24.592592592592595,0)" xlink:href="#ap"/><use transform="matrix(0.07407407407407408,0,0,0.07407407407407408,39.40740740740741,0)" xlink:href="#X"/><use transform="matrix(0.07407407407407408,0,0,0.07407407407407408,48.22222222222223,0)" xlink:href="#ah"/><use transform="matrix(0.07407407407407408,0,0,0.07407407407407408,61.555555555555564,0)" xlink:href="#aq"/><use transform="matrix(0.07407407407407408,0,0,0.07407407407407408,68.96296296296298,0)" xlink:href="#ar"/><use transform="matrix(0.07407407407407408,0,0,0.07407407407407408,74.81481481481482,0)" xlink:href="#ap"/><use transform="matrix(0.07407407407407408,0,0,0.07407407407407408,89.62962962962965,0)" xlink:href="#ao"/><use transform="matrix(0.07407407407407408,0,0,0.07407407407407408,108.81481481481485,0)" xlink:href="#aG"/><use transform="matrix(0.07407407407407408,0,0,0.07407407407407408,128.00000000000003,0)" xlink:href="#ab"/><use transform="matrix(0.07407407407407408,0,0,0.07407407407407408,133.85185185185188,0)" xlink:href="#V"/><use transform="matrix(0.07407407407407408,0,0,0.07407407407407408,147.18518518518522,0)" xlink:href="#ag"/><use transform="matrix(0.07407407407407408,0,0,0.07407407407407408,154.59259259259264,0)" xlink:href="#ap"/><use transform="matrix(0.07407407407407408,0,0,0.07407407407407408,169.40740740740748,0)" xlink:href="#X"/><use transform="matrix(0.07407407407407408,0,0,0.07407407407407408,178.22222222222226,0)" xlink:href="#aF"/><use transform="matrix(0.07407407407407408,0,0,0.07407407407407408,191.55555555555563,0)" xlink:href="#ad"/><use transform="matrix(0.07407407407407408,0,0,0.07407407407407408,206.3703703703704,0)" xlink:href="#aw"/></g><g id="E"><use transform="matrix(0.07407407407407408,0,0,0.07407407407407408,0,0)" xlink:href="#ao"/><use transform="matrix(0.07407407407407408,0,0,0.07407407407407408,19.185185185185187,0)" xlink:href="#X"/><use transform="matrix(0.07407407407407408,0,0,0.07407407407407408,28.000000000000004,0)" xlink:href="#ab"/><use transform="matrix(0.07407407407407408,0,0,0.07407407407407408,33.851851851851855,0)" xlink:href="#ag"/><use transform="matrix(0.07407407407407408,0,0,0.07407407407407408,41.25925925925927,0)" xlink:href="#W"/></g><g id="F"><use transform="matrix(0.07407407407407408,0,0,0.07407407407407408,0,0)" xlink:href="#ar"/><use transform="matrix(0.07407407407407408,0,0,0.07407407407407408,5.851851851851853,0)" xlink:href="#ap"/><use transform="matrix(0.07407407407407408,0,0,0.07407407407407408,20.666666666666668,0)" xlink:href="#aa"/><use transform="matrix(0.07407407407407408,0,0,0.07407407407407408,35.48148148148149,0)" xlink:href="#V"/></g><g id="G"><use transform="matrix(0.07407407407407408,0,0,0.07407407407407408,0,0)" xlink:href="#aq"/><use transform="matrix(0.07407407407407408,0,0,0.07407407407407408,7.407407407407408,0)" xlink:href="#W"/><use transform="matrix(0.07407407407407408,0,0,0.07407407407407408,22.222222222222225,0)" xlink:href="#ag"/><use transform="matrix(0.07407407407407408,0,0,0.07407407407407408,29.629629629629633,0)" xlink:href="#ae"/><use transform="matrix(0.07407407407407408,0,0,0.07407407407407408,42.96296296296297,0)" xlink:href="#ai"/></g><path d="M33 0v-38h34V0H33" id="aH"/><g id="H"><use transform="matrix(0.2222222222222222,0,0,0.2222222222222222,0,0)" xlink:href="#aH"/><use transform="matrix(0.2222222222222222,0,0,0.2222222222222222,22.22222222222222,0)" xlink:href="#aH"/><use transform="matrix(0.2222222222222222,0,0,0.2222222222222222,44.44444444444444,0)" xlink:href="#aH"/></g><g id="I"><use transform="matrix(0.1111111111111111,0,0,0.1111111111111111,0,0)" xlink:href="#aj"/><use transform="matrix(0.1111111111111111,0,0,0.1111111111111111,33.22222222222222,0)" xlink:href="#af"/><use transform="matrix(0.1111111111111111,0,0,0.1111111111111111,55.44444444444444,0)" xlink:href="#X"/><use transform="matrix(0.1111111111111111,0,0,0.1111111111111111,68.66666666666666,0)" xlink:href="#ab"/><use transform="matrix(0.1111111111111111,0,0,0.1111111111111111,77.44444444444443,0)" xlink:href="#Z"/><use transform="matrix(0.1111111111111111,0,0,0.1111111111111111,99.66666666666666,0)" xlink:href="#W"/><use transform="matrix(0.1111111111111111,0,0,0.1111111111111111,121.88888888888889,0)" xlink:href="#X"/></g><g id="J"><use transform="matrix(0.1111111111111111,0,0,0.1111111111111111,0,0)" xlink:href="#ad"/><use transform="matrix(0.1111111111111111,0,0,0.1111111111111111,22.22222222222222,0)" xlink:href="#af"/><use transform="matrix(0.1111111111111111,0,0,0.1111111111111111,44.44444444444444,0)" xlink:href="#ag"/><use transform="matrix(0.1111111111111111,0,0,0.1111111111111111,55.55555555555556,0)" xlink:href="#af"/></g><g id="K"><use transform="matrix(0.1111111111111111,0,0,0.1111111111111111,0,0)" xlink:href="#V"/><use transform="matrix(0.1111111111111111,0,0,0.1111111111111111,20,0)" xlink:href="#ap"/><use transform="matrix(0.1111111111111111,0,0,0.1111111111111111,42.22222222222222,0)" xlink:href="#au"/><use transform="matrix(0.1111111111111111,0,0,0.1111111111111111,64.44444444444444,0)" xlink:href="#X"/><use transform="matrix(0.1111111111111111,0,0,0.1111111111111111,77.66666666666666,0)" xlink:href="#ae"/><use transform="matrix(0.1111111111111111,0,0,0.1111111111111111,97.66666666666666,0)" xlink:href="#W"/><use transform="matrix(0.1111111111111111,0,0,0.1111111111111111,119.88888888888889,0)" xlink:href="#V"/></g><g id="L"><use transform="matrix(0.1111111111111111,0,0,0.1111111111111111,0,0)" xlink:href="#ar"/><use transform="matrix(0.1111111111111111,0,0,0.1111111111111111,8.777777777777777,0)" xlink:href="#ap"/><use transform="matrix(0.1111111111111111,0,0,0.1111111111111111,31,0)" xlink:href="#aa"/><use transform="matrix(0.1111111111111111,0,0,0.1111111111111111,53.22222222222222,0)" xlink:href="#V"/></g><g id="M"><use transform="matrix(0.1111111111111111,0,0,0.1111111111111111,0,0)" xlink:href="#ad"/><use transform="matrix(0.1111111111111111,0,0,0.1111111111111111,22.22222222222222,0)" xlink:href="#af"/><use transform="matrix(0.1111111111111111,0,0,0.1111111111111111,44.44444444444444,0)" xlink:href="#ag"/><use transform="matrix(0.1111111111111111,0,0,0.1111111111111111,55.55555555555556,0)" xlink:href="#af"/><use transform="matrix(0.1111111111111111,0,0,0.1111111111111111,77.77777777777777,0)" xlink:href="#aw"/><use transform="matrix(0.1111111111111111,0,0,0.1111111111111111,100,0)" xlink:href="#af"/><use transform="matrix(0.1111111111111111,0,0,0.1111111111111111,122.22222222222224,0)" xlink:href="#V"/><use transform="matrix(0.1111111111111111,0,0,0.1111111111111111,142.22222222222223,0)" xlink:href="#W"/></g><path d="M209 0H11v-25l151-195H24v-28h176v25L50-27h159V0" id="aI"/><g id="N"><use transform="matrix(0.1111111111111111,0,0,0.1111111111111111,0,0)" xlink:href="#af"/><use transform="matrix(0.1111111111111111,0,0,0.1111111111111111,22.22222222222222,0)" xlink:href="#au"/><use transform="matrix(0.1111111111111111,0,0,0.1111111111111111,44.44444444444444,0)" xlink:href="#ag"/><use transform="matrix(0.1111111111111111,0,0,0.1111111111111111,55.55555555555556,0)" xlink:href="#ai"/><use transform="matrix(0.1111111111111111,0,0,0.1111111111111111,77.77777777777777,0)" xlink:href="#aI"/></g><g id="O"><use transform="matrix(0.1111111111111111,0,0,0.1111111111111111,0,0)" xlink:href="#ag"/><use transform="matrix(0.1111111111111111,0,0,0.1111111111111111,11.11111111111111,0)" xlink:href="#ai"/><use transform="matrix(0.1111111111111111,0,0,0.1111111111111111,33.33333333333333,0)" xlink:href="#W"/></g><g id="P"><use transform="matrix(0.1111111111111111,0,0,0.1111111111111111,0,0)" xlink:href="#ao"/><use transform="matrix(0.1111111111111111,0,0,0.1111111111111111,28.777777777777775,0)" xlink:href="#ap"/><use transform="matrix(0.1111111111111111,0,0,0.1111111111111111,51,0)" xlink:href="#X"/><use transform="matrix(0.1111111111111111,0,0,0.1111111111111111,64.22222222222223,0)" xlink:href="#ar"/><use transform="matrix(0.1111111111111111,0,0,0.1111111111111111,73,0)" xlink:href="#ad"/></g><g id="Q"><use transform="matrix(0.1111111111111111,0,0,0.1111111111111111,0,0)" xlink:href="#ap"/><use transform="matrix(0.1111111111111111,0,0,0.1111111111111111,22.22222222222222,0)" xlink:href="#au"/><use transform="matrix(0.1111111111111111,0,0,0.1111111111111111,44.44444444444444,0)" xlink:href="#ag"/><use transform="matrix(0.1111111111111111,0,0,0.1111111111111111,55.55555555555556,0)" xlink:href="#V"/><use transform="matrix(0.1111111111111111,0,0,0.1111111111111111,75.55555555555556,0)" xlink:href="#ab"/><use transform="matrix(0.1111111111111111,0,0,0.1111111111111111,84.33333333333333,0)" xlink:href="#ad"/><use transform="matrix(0.1111111111111111,0,0,0.1111111111111111,106.55555555555554,0)" xlink:href="#W"/></g><g id="R"><use transform="matrix(0.06172839506172839,0,0,0.06172839506172839,0,0)" xlink:href="#an"/><use transform="matrix(0.06172839506172839,0,0,0.06172839506172839,7.345679012345679,0)" xlink:href="#X"/><use transform="matrix(0.06172839506172839,0,0,0.06172839506172839,14.691358024691358,0)" xlink:href="#au"/><use transform="matrix(0.06172839506172839,0,0,0.06172839506172839,27.037037037037038,0)" xlink:href="#Z"/><use transform="matrix(0.06172839506172839,0,0,0.06172839506172839,39.382716049382715,0)" xlink:href="#am"/><use transform="matrix(0.06172839506172839,0,0,0.06172839506172839,45.55555555555556,0)" xlink:href="#az"/><use transform="matrix(0.06172839506172839,0,0,0.06172839506172839,61.54320987654321,0)" xlink:href="#as"/></g><g id="S"><use transform="matrix(0.06172839506172839,0,0,0.06172839506172839,0,0)" xlink:href="#V"/><use transform="matrix(0.06172839506172839,0,0,0.06172839506172839,11.11111111111111,0)" xlink:href="#ag"/><use transform="matrix(0.06172839506172839,0,0,0.06172839506172839,17.28395061728395,0)" xlink:href="#af"/><use transform="matrix(0.06172839506172839,0,0,0.06172839506172839,29.629629629629626,0)" xlink:href="#ag"/><use transform="matrix(0.06172839506172839,0,0,0.06172839506172839,35.80246913580247,0)" xlink:href="#au"/><use transform="matrix(0.06172839506172839,0,0,0.06172839506172839,48.148148148148145,0)" xlink:href="#V"/><use transform="matrix(0.06172839506172839,0,0,0.06172839506172839,59.25925925925925,0)" xlink:href="#as"/></g><g id="T"><use transform="matrix(0.06172839506172839,0,0,0.06172839506172839,0,0)" xlink:href="#ar"/><use transform="matrix(0.06172839506172839,0,0,0.06172839506172839,4.876543209876543,0)" xlink:href="#ap"/><use transform="matrix(0.06172839506172839,0,0,0.06172839506172839,17.22222222222222,0)" xlink:href="#aa"/><use transform="matrix(0.06172839506172839,0,0,0.06172839506172839,29.5679012345679,0)" xlink:href="#V"/><use transform="matrix(0.06172839506172839,0,0,0.06172839506172839,40.67901234567901,0)" xlink:href="#as"/></g><g id="U"><use transform="matrix(0.06172839506172839,0,0,0.06172839506172839,0,0)" xlink:href="#ap"/><use transform="matrix(0.06172839506172839,0,0,0.06172839506172839,12.345679012345679,0)" xlink:href="#au"/><use transform="matrix(0.06172839506172839,0,0,0.06172839506172839,24.691358024691358,0)" xlink:href="#ag"/><use transform="matrix(0.06172839506172839,0,0,0.06172839506172839,30.864197530864196,0)" xlink:href="#at"/><use transform="matrix(0.06172839506172839,0,0,0.06172839506172839,43.20987654320987,0)" xlink:href="#au"/><use transform="matrix(0.06172839506172839,0,0,0.06172839506172839,55.55555555555555,0)" xlink:href="#ag"/><use transform="matrix(0.06172839506172839,0,0,0.06172839506172839,61.72839506172839,0)" xlink:href="#av"/></g></defs></g></svg>